<?xml version="1.0" encoding="UTF-8" standalone="no"?>
<!DOCTYPE svg PUBLIC "-//W3C//DTD SVG 1.1//EN" "http://www.w3.org/Graphics/SVG/1.1/DTD/svg11.dtd">
<svg width="100%" height="100%" viewBox="0 0 2481 3508" version="1.1" xmlns="http://www.w3.org/2000/svg" xmlns:xlink="http://www.w3.org/1999/xlink" xml:space="preserve" xmlns:serif="http://www.serif.com/" style="fill-rule:evenodd;clip-rule:evenodd;stroke-linecap:round;stroke-linejoin:round;stroke-miterlimit:1.5;">
    <path d="M1630,660.197C1629.5,659.844 1628.82,659.846 1628.32,660.202C1627.82,660.559 1627.59,661.193 1627.75,661.789C1693.28,900.907 1696.08,1126.22 1565.92,1322.29C1565.6,1322.77 1565.04,1323.04 1564.46,1322.97C1563.89,1322.91 1563.39,1322.54 1563.18,1322C1561.53,1317.81 1559.37,1314.12 1556.48,1311.16C1555.09,1309.8 1554.52,1307.81 1554.98,1305.92C1595.25,1138.78 1557.3,993.619 1419.43,876.51C1419.15,876.273 1418.75,876.228 1418.43,876.398C1418.1,876.568 1417.91,876.918 1417.95,877.283C1419.01,888.235 1423.73,936.772 1425.07,950.536C1425.12,951.032 1424.84,951.502 1424.38,951.696C1423.92,951.889 1423.39,951.762 1423.07,951.381C1392.96,915.839 1359.24,885.941 1319.21,859.465C1288.54,839.178 1253.73,819.6 1216.35,808.059C1209.44,805.925 1202.72,804.676 1194.48,805.488C1194.26,805.51 1194.07,805.634 1193.96,805.821C1193.85,806.009 1193.84,806.237 1193.93,806.435C1209.21,840.38 1215.65,872.595 1215.38,907.132C1215.37,907.768 1214.95,908.326 1214.34,908.509C1213.73,908.693 1213.08,908.461 1212.72,907.935C1184.66,866.656 1158.91,823.76 1142.76,774.142C1142.71,773.997 1142.59,773.89 1142.44,773.864C1142.29,773.837 1142.14,773.896 1142.04,774.016C1128.01,791.913 1112.84,807.723 1101.17,825.968C1062.62,886.234 1039.46,950.243 1030.86,1012.67C1030.81,1013.03 1030.52,1013.31 1030.15,1013.34C1029.79,1013.37 1029.45,1013.13 1029.35,1012.78C1026.26,1002.13 1023.88,990.069 1022.07,976.88C1022.04,976.668 1021.88,976.496 1021.67,976.449C1021.46,976.402 1021.25,976.49 1021.13,976.67C1000.8,1008.01 985.276,1045.19 975.065,1072.75C948.869,1143.44 946.943,1203.25 951.534,1262.53C951.829,1266.29 950.624,1270.01 948.183,1272.88C938.635,1284.32 932.577,1302.02 929.104,1324.39C928.986,1325.15 928.425,1325.77 927.678,1325.96C926.932,1326.15 926.144,1325.88 925.678,1325.26C900.424,1291.84 883.901,1254.86 866.928,1214.93C842.935,1158.48 821.693,1096.74 815.264,1026.02C806.043,924.583 821.691,806.2 856.314,671.281C856.383,671.013 856.29,670.73 856.075,670.557C855.861,670.383 855.564,670.35 855.317,670.473C840.092,678.044 823.525,686.827 810.366,697.277C757.474,739.28 714.545,785.377 678.566,832.027C598.335,936.055 557.09,1049.15 547.802,1169.69C547.661,1171.61 546.442,1173.27 544.662,1173.98C542.881,1174.69 540.852,1174.32 539.435,1173.03C521.591,1156.83 505.496,1142.04 490.237,1123.01C462.484,1088.38 438.1,1046.34 415.563,1006.4C402.278,982.853 390.134,964.855 379.14,940.421C378.567,939.144 377.306,938.315 375.906,938.295C374.507,938.275 373.223,939.067 372.613,940.327C360.486,965.727 350.883,993.69 344.667,1021.01C332.119,1076.16 324.072,1131.12 326.15,1186.42C328.574,1250.9 341.744,1317.26 363.908,1382.24C371.621,1404.86 381.601,1426.13 391.176,1448.52C391.723,1449.81 391.349,1451.31 390.258,1452.19C389.167,1453.07 387.624,1453.12 386.475,1452.32C358.719,1432.55 334.016,1408.64 308.328,1384.59C307.971,1384.25 307.653,1383.95 307.366,1383.67C305.922,1382.24 303.777,1381.79 301.88,1382.51C299.983,1383.24 298.684,1385 298.557,1387.03C293.877,1464.76 308.505,1532.09 338.62,1594.09C377.225,1673.55 441.603,1742.61 527.231,1794.17C541.349,1802.67 553.176,1805.81 569.982,1808.4C570.472,1808.48 570.87,1808.84 570.996,1809.32C571.121,1809.8 570.95,1810.31 570.56,1810.61C568.538,1812.2 565.623,1814.49 563.8,1815.92C563.405,1816.23 563.182,1816.71 563.2,1817.22C563.218,1817.72 563.475,1818.18 563.891,1818.46C578.024,1827.88 594.754,1834.49 609.385,1842.48C630.711,1854.12 649.257,1866.46 671.912,1874.35C706.494,1886.39 746.007,1888.08 787.115,1889.6C787.261,1889.6 787.377,1889.72 787.383,1889.87C787.389,1890.01 787.282,1890.14 787.138,1890.16C770.594,1892.38 755.316,1896.82 747.233,1903.54C746.824,1903.91 746.605,1904.45 746.637,1905C746.669,1905.55 746.948,1906.06 747.398,1906.38C770.71,1923.18 790.068,1934.58 810.607,1946.96C854.636,1973.5 896.362,1991.79 937.779,1989.11C953.265,1988.1 970.675,1986.32 985.957,1980.77C986.128,1980.71 986.318,1980.78 986.401,1980.94C986.485,1981.11 986.435,1981.3 986.286,1981.41C976.777,1988.01 969.403,1995.39 960.527,2001.74C921.185,2029.9 889.204,2053.56 867.252,2080.18C810.316,2149.22 805.043,2229.28 841.17,2291.76C849.991,2307.02 865.271,2321.76 880.215,2330.26C880.814,2330.59 881.535,2330.61 882.159,2330.33C882.783,2330.05 883.237,2329.49 883.385,2328.82C896.383,2270.41 922.133,2217.42 966.889,2172.49C967.172,2172.2 967.601,2172.13 967.961,2172.3C968.32,2172.48 968.532,2172.86 968.488,2173.25C961.586,2239.1 999.955,2298.79 1065.72,2354.77C1075.39,2362.97 1080.73,2375.17 1080.2,2387.84C1079.72,2400.19 1076.28,2412.51 1069.76,2424.77C1063.65,2436.25 1051.09,2442.78 1038.17,2441.18C1030.03,2440.13 1023.52,2437.89 1013.7,2432.45C979.143,2413.33 944.873,2388.44 909.415,2376.62C861.301,2360.59 812.235,2363.16 767.893,2389.93C767.175,2390.37 766.781,2391.19 766.887,2392.02C766.992,2392.86 767.578,2393.55 768.382,2393.8C800.923,2403.65 846.859,2417.44 866.869,2448.74C901.553,2503 901.233,2586.64 932.754,2632.44C979.315,2700.09 1058.48,2719.56 1160.41,2702.24C1161.64,2702.03 1162.88,2702.57 1163.57,2703.62C1164.26,2704.66 1164.26,2706.02 1163.57,2707.06C1058.76,2867.81 1069.73,2989.15 1179.12,3074.48C1180.18,3075.31 1181.61,3075.49 1182.85,3074.96C1184.09,3074.43 1184.95,3073.27 1185.09,3071.93C1188.82,3040.89 1201.46,2999.34 1222.22,2975.61C1249.48,2944.44 1296.18,2921.8 1334.96,2895.44C1359.65,2878.65 1377.49,2859.33 1396.81,2838.64C1455.53,2775.76 1491.22,2689.54 1508.85,2600.04C1508.92,2599.71 1509.21,2599.47 1509.55,2599.48C1509.89,2599.49 1510.17,2599.74 1510.22,2600.08C1519.04,2664.78 1507.56,2740.39 1482.67,2810.75C1482.44,2811.41 1482.66,2812.15 1483.23,2812.56C1483.8,2812.98 1484.57,2812.97 1485.13,2812.55C1614.69,2715.04 1671.47,2614.18 1677.52,2514.21C1681.21,2453.32 1667.9,2390.92 1635.6,2334.98C1614.65,2298.72 1583.59,2272.75 1550.44,2239.24C1549.56,2238.35 1549.1,2237.13 1549.18,2235.88C1549.26,2234.63 1549.86,2233.47 1550.85,2232.69C1596.15,2197.07 1620.25,2159.45 1653.1,2145.77C1680.67,2134.3 1714.46,2149.07 1737.31,2166.58C1765.5,2188.18 1779.77,2223 1785.59,2273.62C1785.62,2273.91 1785.84,2274.14 1786.12,2274.2C1786.41,2274.25 1786.7,2274.12 1786.84,2273.86C1817.74,2216.8 1816.92,2154.31 1792.78,2091.75C1782.16,2064.3 1763.24,2040.84 1738.66,2024.65C1665.36,1976.35 1588.1,1999.17 1509.32,2049.76C1509.14,2049.87 1508.91,2049.86 1508.76,2049.72C1508.6,2049.59 1508.55,2049.36 1508.63,2049.17C1517.12,2030.18 1522.52,2009.13 1519.79,1982.66C1519.75,1982.28 1519.9,1981.89 1520.19,1981.64C1520.48,1981.38 1520.87,1981.27 1521.25,1981.36C1547.49,1987.06 1576.48,1989.29 1603.3,1982.64C1630.26,1975.96 1654.96,1960.2 1682.94,1943.29C1702.74,1931.33 1725.36,1918.79 1745.79,1901.74C1746.5,1901.15 1746.9,1900.27 1746.88,1899.36C1746.87,1898.44 1746.45,1897.58 1745.73,1897.01C1737.25,1890.76 1724.86,1886.95 1710.86,1884.16C1710.72,1884.13 1710.62,1884 1710.64,1883.86C1710.65,1883.72 1710.77,1883.61 1710.91,1883.61C1782.1,1884.78 1843.63,1866.16 1894.26,1836.45C1908.09,1828.34 1919.7,1822.43 1932.15,1812.24C1932.38,1812.06 1932.62,1811.87 1932.85,1811.69C1936.19,1809.27 1932.77,1807.76 1926.21,1804.72C1926.03,1804.64 1925.92,1804.45 1925.94,1804.25C1925.96,1804.05 1926.1,1803.88 1926.3,1803.83C1973.05,1791.54 2019.4,1760.4 2059.3,1722.62C2115.48,1669.44 2160.33,1597.89 2188.34,1501.07C2200.82,1457.97 2205.57,1417.2 2198.5,1366.36C2198.38,1365.47 2197.75,1364.73 2196.89,1364.46C2196.03,1364.19 2195.09,1364.44 2194.47,1365.1C2166.88,1394.84 2135.84,1422.11 2102.11,1447.46C2101.66,1447.79 2101.04,1447.78 2100.61,1447.43C2100.18,1447.07 2100.04,1446.47 2100.28,1445.96C2182.64,1271.91 2192.51,1096.43 2117.64,919.267C2117.49,918.894 2117.12,918.65 2116.72,918.645C2116.32,918.64 2115.95,918.874 2115.78,919.242C2104.78,943.304 2089.62,963 2076.63,986.764C2055.55,1025.32 2033.15,1065.24 2004.47,1102.97C1986.87,1126.14 1966.49,1148.22 1943.85,1169.48C1943.41,1169.9 1942.77,1170.02 1942.21,1169.79C1941.65,1169.56 1941.27,1169.03 1941.24,1168.42C1931.44,965.069 1825.48,796.459 1630,660.197Z" style="fill:rgb(254,222,23);"/>
    <path d="M1687.59,737.625C1686.82,736.844 1685.65,736.625 1684.65,737.075C1683.65,737.526 1683.04,738.55 1683.12,739.642C1689.93,833.63 1703.09,922.708 1699.94,1000.97C1691.53,1209.65 1631.7,1365.64 1541.7,1440.48C1540.78,1441.23 1539.49,1441.33 1538.47,1440.73C1537.45,1440.12 1536.92,1438.95 1537.13,1437.78C1545.64,1391.32 1542.53,1350.81 1524.04,1318.19C1521.91,1314.5 1521.27,1310.13 1522.26,1305.98C1550.88,1184.59 1535.64,1086.47 1477.45,1012.98C1472.38,1006.57 1467.06,1000.19 1460.61,994.476C1459.92,993.877 1458.96,993.721 1458.12,994.075C1457.27,994.429 1456.71,995.23 1456.65,996.14C1455.14,1020.31 1450.07,1043.8 1441.61,1066.36C1441.37,1066.98 1440.76,1067.37 1440.1,1067.33C1439.44,1067.3 1438.88,1066.83 1438.71,1066.19C1421.45,1000.94 1361.93,925.862 1295.74,888.012C1280.93,879.546 1266.65,868.74 1249.4,867.398C1248.55,867.346 1247.72,867.674 1247.14,868.292C1246.55,868.911 1246.27,869.757 1246.37,870.603C1251.05,911.158 1246.95,947.306 1231.11,977.586C1230.76,978.257 1230.11,978.723 1229.35,978.843C1228.6,978.962 1227.84,978.723 1227.29,978.196C1188.56,940.904 1156.91,902.46 1137.06,862.104C1136.82,861.627 1136.37,861.296 1135.84,861.221C1135.32,861.145 1134.79,861.334 1134.43,861.726C1073.67,928.336 1040.73,1008.5 1043.87,1106.24C1043.88,1106.71 1043.57,1107.14 1043.11,1107.27C1042.65,1107.4 1042.16,1107.2 1041.92,1106.78C1036.04,1096.07 1033.55,1084.61 1031.35,1071.62C1031.29,1071.26 1031.01,1070.97 1030.65,1070.91C1030.29,1070.84 1029.93,1071.01 1029.75,1071.32C994.614,1131.54 979.969,1196.8 989.253,1267.97C990.126,1274.47 988.405,1281.05 984.462,1286.29C953.242,1327.75 942.567,1380.18 952.667,1443.71C952.838,1444.78 952.325,1445.84 951.382,1446.37C950.439,1446.9 949.265,1446.79 948.438,1446.09C817.065,1333.54 764.594,1104.15 796.715,749.497C796.804,748.516 796.258,747.587 795.357,747.188C794.457,746.789 793.402,747.009 792.735,747.734C758.068,785.556 728.063,825.087 700.538,865.207C653.241,934.145 617.117,1005.01 596.372,1076.57C585.062,1115.58 577.6,1154.61 577.059,1194.07C576.771,1215.06 579.504,1234.86 582.763,1255.69C582.953,1256.91 582.397,1258.13 581.348,1258.79C580.299,1259.44 578.959,1259.41 577.941,1258.71C536.706,1230.12 499.627,1199.7 468.698,1160.23C433.257,1115 407.444,1059.27 384.084,1008.08C383.88,1007.63 383.411,1007.37 382.924,1007.43C382.438,1007.49 382.048,1007.86 381.962,1008.35C376.679,1037.88 370.974,1066.06 368.037,1094.82C358.161,1191.55 366.219,1284.51 395.026,1367.13C412.463,1417.15 440.41,1470.1 478.549,1512.65C491.886,1527.53 504.978,1538.93 521.863,1550.27C522.362,1550.61 522.554,1551.25 522.322,1551.8C522.09,1552.35 521.499,1552.67 520.911,1552.55C452.099,1538.17 390.29,1508.86 340.241,1454.45C339.9,1454.08 339.353,1453.98 338.901,1454.21C338.45,1454.43 338.203,1454.93 338.297,1455.43C344.221,1486.9 348.046,1517.12 357.19,1546.54C377.182,1610.86 408.412,1665.98 454.414,1709.5C497.628,1750.38 553.705,1781.34 630.992,1790.76C661.548,1794.49 693.032,1788.66 730.326,1785.99C730.685,1785.96 731.01,1786.2 731.096,1786.55C731.182,1786.9 731.005,1787.26 730.676,1787.4C699.254,1801.1 666.865,1808.21 644.735,1813.53C643.964,1813.71 643.384,1814.35 643.266,1815.13C643.148,1815.92 643.516,1816.69 644.197,1817.1C727.457,1866.72 805.949,1887.99 879.746,1881.34C880.531,1881.26 881.264,1881.74 881.508,1882.49C881.753,1883.24 881.442,1884.06 880.762,1884.46C864.195,1893.67 843.836,1898.56 824.533,1901.98C823.624,1902.14 822.887,1902.8 822.637,1903.69C822.386,1904.58 822.666,1905.53 823.357,1906.14C873.911,1950.69 932.389,1979.76 1004.94,1951.19C1007.82,1950.04 1011.1,1950.49 1013.57,1952.36C1020.75,1957.46 1030.3,1962.15 1040.86,1967.62C1042.02,1968.23 1042.87,1969.32 1043.17,1970.6C1043.47,1971.88 1043.19,1973.23 1042.42,1974.29C1031.7,1988.94 1019.95,1999.01 1004.72,2009.16C958.745,2039.8 915.577,2063.37 888.367,2094.44C840.01,2149.65 829.821,2215.71 866.054,2278.47C866.44,2279.14 867.188,2279.5 867.947,2279.39C868.707,2279.29 869.327,2278.74 869.518,2277.99C888.027,2206.53 933.826,2159.23 1001.22,2131.05C1001.74,2130.83 1002.33,2130.92 1002.76,2131.28C1003.19,2131.64 1003.39,2132.21 1003.27,2132.76C998.53,2154.62 996.449,2177.75 999.569,2197.71C1002.41,2215.89 1010.03,2230.82 1017.91,2247.72C1032.16,2278.26 1052.99,2306.86 1085.88,2332.99C1089.67,2335.99 1092.55,2339.99 1094.19,2344.53C1113.96,2399.32 1109.3,2440.32 1079.57,2469.03C1072.37,2476.02 1062.45,2479.47 1052.47,2478.49C1027.5,2476.1 1011.33,2468.36 993.477,2455.85C959.405,2431.97 932.579,2413.19 905.987,2399.9C872.921,2383.38 842.056,2380.74 825.793,2386.53C825.299,2386.74 824.98,2387.23 824.985,2387.76C824.989,2388.3 825.316,2388.78 825.814,2388.98C839.137,2394.38 852.273,2400.38 864.276,2412.04C882.324,2429.59 897.81,2455.76 907.527,2475.09C922.429,2504.72 919.682,2540.9 927.678,2568.59C937.885,2603.93 958.798,2628.98 982.94,2647.32C1056,2702.81 1162.45,2693.53 1235.27,2611.22C1235.51,2610.95 1235.89,2610.86 1236.23,2610.99C1236.57,2611.12 1236.78,2611.45 1236.77,2611.81C1235.87,2637.11 1227.42,2656.73 1215.61,2680.18C1182.54,2745.8 1143.51,2806.79 1130.7,2865.71C1118.69,2920.93 1130.39,2974.56 1160.59,3018.17C1160.99,3018.75 1161.69,3019.04 1162.39,3018.93C1163.08,3018.81 1163.65,3018.3 1163.84,3017.62C1174.51,2979.23 1190.34,2959.4 1218.58,2932.99C1281.08,2874.53 1344.98,2848.16 1390.1,2789.98C1457.89,2702.58 1491.89,2583.77 1481.93,2490.87C1481.87,2490.32 1482.16,2489.8 1482.65,2489.56C1483.15,2489.33 1483.74,2489.43 1484.13,2489.82C1548.62,2554.99 1563.38,2631.5 1538.22,2717.12C1538.04,2717.74 1538.28,2718.41 1538.83,2718.76C1539.37,2719.11 1540.08,2719.05 1540.57,2718.62C1566.73,2695.53 1584.77,2669.93 1600.32,2642.69C1685.17,2494.08 1658.34,2349.96 1487.32,2229.66C1486.62,2229.16 1486.25,2228.31 1486.38,2227.45C1486.5,2226.6 1487.1,2225.88 1487.92,2225.61C1516.06,2216.13 1539.83,2199.9 1558.35,2184.35C1593.54,2154.81 1624.62,2129.54 1652.55,2119.21C1705.81,2099.51 1747.65,2121.94 1784.84,2189.63C1785.28,2190.43 1786.21,2190.83 1787.09,2190.6C1787.98,2190.37 1788.59,2189.56 1788.58,2188.65C1788.16,2148.57 1782.3,2116.17 1768.6,2091.35C1731.5,2024.12 1650.6,2012.49 1565.78,2054.3C1536.91,2068.52 1518.91,2085.66 1485.4,2106.46C1464.47,2119.46 1439.14,2133.88 1412.51,2141.91C1411.69,2142.14 1410.83,2141.76 1410.45,2141C1410.07,2140.24 1410.29,2139.33 1410.96,2138.82C1477.69,2088.19 1501.69,2028.36 1488.37,1973.71C1488.27,1973.31 1487.93,1973 1487.52,1972.92C1487.1,1972.86 1486.68,1973.04 1486.45,1973.39C1461.89,2011.02 1432.47,2034.69 1396.64,2039.97C1395.65,2040.11 1394.65,2039.76 1393.96,2039.04C1393.27,2038.31 1392.98,2037.3 1393.17,2036.31C1399.16,2009.41 1433.63,1979.38 1481.98,1947.83C1484.7,1946.06 1488.18,1945.94 1491.02,1947.52C1544.36,1977.01 1611.36,1953.5 1675.51,1901.58C1676.06,1901.12 1676.3,1900.39 1676.12,1899.7C1675.93,1899.01 1675.36,1898.49 1674.66,1898.37C1654.11,1894.93 1631.14,1890.41 1613.81,1878.88C1613.47,1878.64 1613.33,1878.2 1613.47,1877.81C1613.61,1877.41 1614,1877.16 1614.42,1877.2C1699.62,1884.61 1780.81,1855.69 1854.22,1808.17C1854.54,1807.96 1854.7,1807.57 1854.61,1807.19C1854.52,1806.81 1854.19,1806.53 1853.8,1806.49C1822.7,1803.38 1793.53,1794.76 1765.75,1782.17C1765.42,1782.02 1765.26,1781.66 1765.35,1781.32C1765.45,1780.98 1765.78,1780.75 1766.13,1780.79C1964.6,1803.37 2076.97,1714.13 2132.72,1558.98C2144.93,1525.01 2153.2,1483.16 2160.66,1443.13C2160.73,1442.74 2160.55,1442.35 2160.2,1442.15C2159.85,1441.96 2159.41,1442.01 2159.12,1442.28C2105.09,1492.09 2046.4,1529.85 1978.39,1543.44C1977.79,1543.56 1977.19,1543.26 1976.92,1542.71C1976.66,1542.16 1976.79,1541.5 1977.25,1541.1C2097.82,1436.15 2147.37,1274.56 2122.28,1069.43C2119.51,1046.81 2115.14,1020.78 2107.41,997.973C2107.26,997.515 2106.83,997.205 2106.34,997.198C2105.86,997.192 2105.42,997.491 2105.25,997.945C2066.74,1100.71 2005.54,1188.21 1911.22,1249.54C1910.49,1250.01 1909.54,1250.02 1908.8,1249.55C1908.06,1249.07 1907.67,1248.21 1907.79,1247.35C1919.71,1161.53 1906.14,1085.79 1869.43,1002C1832.04,916.672 1769.01,820.764 1687.59,737.625Z" style="stroke:black;stroke-width:1px;"/>
    <path d="M1105.62,1103.33C1104.49,1068.88 1108.83,1034.48 1118.48,1001.39C1123.48,984.175 1129.37,963.968 1131.88,955.36C1132.17,954.382 1132.9,953.6 1133.86,953.258C1134.82,952.916 1135.89,953.056 1136.73,953.633C1153.81,965.351 1171.13,975.965 1188.22,985.396C1188.48,985.54 1188.81,985.466 1188.99,985.224C1189.16,984.982 1189.13,984.647 1188.91,984.441C1168.35,964.727 1148.46,942.157 1130.17,919.869C1129.45,918.991 1128.4,918.444 1127.27,918.352C1126.14,918.259 1125.02,918.631 1124.17,919.381C1113.81,929.069 1105.52,944.082 1098.63,957.672C1081.42,991.607 1074.23,1032.28 1074.29,1073.84C1074.33,1104.8 1077.89,1136.18 1088.51,1166.22C1090.84,1172.73 1095.34,1178.23 1101.26,1181.8C1104.57,1183.84 1108.13,1185.99 1110.48,1187.4C1110.97,1187.7 1111.6,1187.69 1112.08,1187.38C1112.57,1187.06 1112.84,1186.5 1112.77,1185.92C1109.5,1158.78 1106.53,1130.55 1105.62,1103.33Z" style="fill:rgb(254,222,23);"/>
    <path d="M1081.12,1185.77C1081.35,1185.7 1081.5,1185.5 1081.5,1185.26C1081.5,1185.03 1081.34,1184.83 1081.11,1184.77C1063.68,1179.9 1046.11,1163.34 1029.09,1144.12C1028.6,1143.56 1027.85,1143.32 1027.13,1143.48C1026.4,1143.64 1025.83,1144.18 1025.62,1144.89C1010.01,1197.93 1010.52,1228.93 1014.67,1250.89C1014.86,1251.82 1015.5,1252.58 1016.37,1252.93C1017.24,1253.28 1018.23,1253.16 1019,1252.62C1022.37,1250.24 1025.96,1247.5 1029.74,1244.5C1031.16,1243.36 1032.05,1241.69 1032.19,1239.88C1033.08,1228.53 1036.4,1186.31 1037.28,1175.04C1037.33,1174.47 1037.67,1173.96 1038.19,1173.71C1038.7,1173.46 1039.31,1173.5 1039.79,1173.82C1056.12,1184.79 1070.04,1188.55 1081.12,1185.77Z" style="fill:rgb(254,222,23);"/>
    <path d="M1142.55,1330.43C1143.79,1331.08 1145.31,1330.82 1146.26,1329.78C1147.21,1328.75 1147.34,1327.21 1146.59,1326.03C1142.89,1320.19 1136.05,1315.32 1130.42,1311.01C1092.8,1282.18 1051.52,1271.91 1023,1308.95C1022.5,1309.6 1021.61,1309.8 1020.88,1309.42C1020.14,1309.04 1019.79,1308.2 1020.03,1307.41C1028.34,1281.21 1041.93,1254.74 1058.99,1229.32C1018.4,1271.48 986.702,1322.53 979.465,1390.68C979.396,1391.35 979.672,1391.99 980.195,1392.4C980.718,1392.81 981.414,1392.92 982.036,1392.69C986.463,1391.02 990.793,1388.42 993.245,1383.91C996.493,1377.93 996.859,1368.86 1000.36,1361.17C1003.25,1354.83 1008.83,1349.78 1012.6,1343.35C1012.82,1342.93 1013.29,1342.73 1013.74,1342.87C1014.18,1343 1014.47,1343.44 1014.41,1343.9C1004.94,1426.71 1018,1477.41 1047,1505.41C1028.12,1451.36 1007.81,1401.27 1031.93,1339.56C1032.04,1339.29 1032.14,1339.01 1032.24,1338.74C1043.26,1308.09 1066.44,1300.66 1110.53,1314C1122.45,1317.61 1129.52,1323.77 1142.55,1330.43Z" style="fill:rgb(254,222,23);"/>
    <path d="M1220.71,1404.13C1220.66,1399.35 1219.83,1394.61 1218.24,1390.1C1197.07,1330.06 1166.43,1277.07 1093.52,1271.4C1092.86,1271.35 1092.26,1271.75 1092.04,1272.37C1091.83,1273 1092.07,1273.68 1092.62,1274.05C1100.32,1279.13 1115.58,1289.17 1119.75,1291.92C1120.89,1292.67 1122.03,1293.4 1123.19,1294.12C1165.99,1320.77 1189.86,1363.19 1216.94,1402.97C1217.45,1403.71 1218.4,1404.03 1219.26,1403.74C1220.11,1403.45 1220.67,1402.63 1220.63,1401.72C1220.43,1399.02 1219.98,1396.23 1220.71,1404.13Z" style="fill:rgb(254,222,23);"/>
    <path d="M1314.19,1040.49C1290.54,1034.54 1268.17,1029.52 1244.31,1018.48C1226.37,1010.19 1208.96,995.455 1190.04,984.534C1182.67,980.279 1174.3,976.78 1166.79,972.609C1155.62,966.405 1145.48,958.412 1134.43,951.519C1134.25,951.406 1134.03,951.375 1133.82,951.433C1133.62,951.491 1133.44,951.632 1133.35,951.822C1099.68,1019.18 1098.96,1097.02 1111.85,1184.22C1112.04,1185.47 1111.68,1186.73 1110.87,1187.69C1110.06,1188.65 1108.87,1189.22 1107.61,1189.24C1097.84,1189.48 1088.56,1189.24 1081.34,1184.87C1080.87,1184.57 1080.29,1184.51 1079.77,1184.68C1067.65,1188.49 1053.74,1180.97 1038.87,1172.24C1038.55,1172.06 1038.16,1172.04 1037.84,1172.21C1037.51,1172.38 1037.29,1172.7 1037.26,1173.07C1036.26,1183.97 1030.72,1244.26 1030.72,1244.26C1041.9,1232.88 1054.86,1223.94 1068.55,1216.02C1059.46,1226.21 1046.46,1247.54 1041.17,1256.75C1032.96,1271.05 1024.46,1288.66 1018.95,1310.83C1018.84,1311.26 1019.04,1311.71 1019.42,1311.92C1019.81,1312.14 1020.29,1312.07 1020.6,1311.75C1025.87,1306.13 1031.74,1299.11 1037.14,1295.37C1045.75,1289.41 1055.46,1285.9 1064.67,1285.2C1079.83,1284.04 1096.25,1289.76 1112.48,1299C1120.8,1303.74 1139.07,1321.04 1147.53,1327.08C1145.87,1316.03 1123.23,1293.83 1109.35,1284.86C1104.63,1281.8 1099,1278.41 1094.15,1274.93C1093.51,1274.45 1093.27,1273.6 1093.57,1272.86C1093.87,1272.12 1094.63,1271.67 1095.42,1271.76C1152.22,1278.84 1195.44,1319.82 1217.99,1390.83C1219.18,1394.6 1219.75,1398.05 1220.26,1401.69C1220.36,1402.38 1219.97,1403.04 1219.32,1403.29C1218.67,1403.54 1217.94,1403.31 1217.56,1402.73C1204.6,1383.21 1191.85,1363.4 1176.95,1344.9C1190.93,1371.78 1196.13,1397.85 1193.49,1422.53C1190.45,1450.38 1169.08,1472.73 1141.39,1477.02C1124.26,1479.69 1107.69,1477.17 1092.58,1470.31C1070.45,1460.26 1051.53,1441.43 1037.95,1411.46C1029.5,1392.8 1027.73,1368.66 1030.75,1342.72C1015.59,1375.23 1016.89,1423.43 1036.31,1475.61C1039.81,1485.02 1040.28,1490.46 1042.77,1500.93C1057.98,1525.64 1086.97,1544.71 1121.81,1553.8C1122.17,1553.9 1122.57,1553.8 1122.84,1553.53C1123.11,1553.27 1123.23,1552.89 1123.15,1552.52C1121.16,1541.65 1127.03,1528.87 1137.54,1516.24C1157.57,1492.16 1189.26,1462.85 1215.52,1444.21C1227.71,1435.55 1238.81,1424.94 1246.54,1425.15C1252.48,1425.3 1257.29,1432.55 1266.81,1440.32C1281.94,1452.65 1309.42,1477.17 1327.01,1488.5C1320.92,1480.6 1306.25,1466.52 1302.39,1458.55C1295.75,1444.85 1293.95,1432.74 1293.61,1418.17C1292.98,1390.83 1302.61,1360.8 1319.04,1335.99C1327.96,1322.52 1362.37,1297.87 1375.07,1284.47C1337.65,1305.69 1282.91,1350.34 1258.93,1393.62C1240.61,1354.52 1230.67,1311.95 1228.65,1266.13C1243.25,1276.96 1260.06,1283.58 1276.62,1283.12C1237.17,1236.48 1209.86,1158.91 1190.57,1067.18C1223.17,1105.71 1261.69,1133.42 1308.11,1146.62C1315.93,1111.25 1318.65,1075.87 1314.19,1040.49Z" style="fill:rgb(255,119,0);"/>
    <g transform="matrix(0.938386,0,0,0.986302,65.9974,19.6269)">
        <path d="M1085.34,1323.88C1085.33,1322.3 1084.66,1320.79 1083.48,1319.69C1082.29,1318.59 1080.69,1317.99 1079.03,1318.03C1079.04,1318.05 1079.04,1318.05 1079.04,1318.05C1075.55,1318.12 1072.67,1320.68 1072.38,1323.99C1071.17,1336.9 1070.46,1348.34 1072.11,1359.3C1075.17,1379.57 1083.95,1396.87 1095.27,1408.95C1100.76,1414.81 1108.07,1419 1115.28,1422.69C1118.54,1424.37 1121.74,1426.71 1125.33,1428.71C1129.29,1430.89 1133.74,1432.16 1138.31,1432.42C1139.04,1432.49 1139.8,1432.53 1140.53,1432.57C1141.4,1432.62 1142.24,1432.25 1142.76,1431.58C1143.28,1430.92 1143.4,1430.05 1143.1,1429.27C1143.1,1429.27 1143.1,1429.27 1143.1,1429.27C1142.24,1427.09 1140.57,1425.28 1138.41,1424.18C1130.62,1420.16 1123.47,1413.63 1116.61,1405.91C1115.85,1405.05 1115.56,1403.91 1115.83,1402.82C1116.1,1401.74 1116.89,1400.84 1117.97,1400.39C1124.44,1397.89 1127.18,1393.14 1126.18,1388.62C1124.9,1382.84 1116.61,1375.62 1107.16,1371.13C1103.82,1369.54 1101.32,1368.76 1097.99,1369.22C1094.42,1369.7 1090.99,1367.7 1089.81,1364.46C1086.44,1354.58 1085.41,1340.14 1085.34,1323.88Z" style="fill:white;"/>
    </g>
    <g transform="matrix(-0.938386,0,0,0.986302,2422.13,16.1961)">
        <path d="M1085.34,1323.88C1085.33,1322.3 1084.66,1320.79 1083.48,1319.69C1082.29,1318.59 1080.69,1317.99 1079.03,1318.03C1079.04,1318.05 1079.04,1318.05 1079.04,1318.05C1075.55,1318.12 1072.67,1320.68 1072.38,1323.99C1071.17,1336.9 1070.46,1348.34 1072.11,1359.3C1075.17,1379.57 1083.95,1396.87 1095.27,1408.95C1100.76,1414.81 1108.07,1419 1115.28,1422.69C1118.54,1424.37 1121.74,1426.71 1125.33,1428.71C1129.29,1430.89 1133.74,1432.16 1138.31,1432.42C1139.04,1432.49 1139.8,1432.53 1140.53,1432.57C1141.4,1432.62 1142.24,1432.25 1142.76,1431.58C1143.28,1430.92 1143.4,1430.05 1143.1,1429.27C1143.1,1429.27 1143.1,1429.27 1143.1,1429.27C1142.24,1427.09 1140.57,1425.28 1138.41,1424.18C1130.62,1420.16 1123.47,1413.63 1116.61,1405.91C1115.85,1405.05 1115.56,1403.91 1115.83,1402.82C1116.1,1401.74 1116.89,1400.84 1117.97,1400.39C1124.44,1397.89 1127.18,1393.14 1126.18,1388.62C1124.9,1382.84 1116.61,1375.62 1107.16,1371.13C1103.82,1369.54 1101.32,1368.76 1097.99,1369.22C1094.42,1369.7 1090.99,1367.7 1089.81,1364.46C1086.44,1354.58 1085.41,1340.14 1085.34,1323.88Z" style="fill:white;"/>
    </g>
    <g transform="matrix(0.933699,0,0,0.98128,69.3385,27.2143)">
        <path d="M1061.52,1318.04C1060.42,1317.95 1059.32,1317.79 1058.24,1317.58C1057.13,1317.28 1056.05,1317.24 1055,1317.34C1053.19,1317.51 1051.67,1318.7 1051.13,1320.35C1043.58,1344.15 1044.57,1367.95 1050.93,1391.75C1052.38,1397.14 1054.42,1402.37 1057.02,1407.35C1062.21,1417.57 1067.48,1426.88 1074.83,1434.17C1084.77,1444.03 1097.96,1450.34 1109.46,1452.99C1113.43,1453.9 1117.55,1453.98 1121.44,1453.28C1122.07,1453.15 1122.53,1452.65 1122.57,1452.04C1122.61,1451.43 1122.23,1450.87 1121.62,1450.67C1118.05,1449.4 1114.55,1447.75 1111.15,1445.61C1110.78,1445.36 1110.64,1444.9 1110.84,1444.51C1111.03,1444.12 1111.49,1443.92 1111.93,1444.05C1118.11,1445.83 1124.04,1446.49 1129.25,1445.03C1129.67,1444.9 1129.95,1444.54 1129.98,1444.12C1130,1443.7 1129.75,1443.32 1129.35,1443.14C1109.22,1434.55 1095.62,1426.64 1084.51,1414.69C1063.93,1392.55 1056.17,1362.85 1060.21,1331.86C1060.54,1329.45 1061.88,1327.26 1063.94,1325.81C1066.52,1323.97 1066.69,1321.33 1063.76,1318.99C1063.17,1318.52 1062.38,1318.11 1061.52,1318.04Z" style="fill:white;"/>
    </g>
    <g transform="matrix(-0.933699,0,0,0.98128,2419.65,24.256)">
        <path d="M1061.52,1318.04C1060.42,1317.95 1059.32,1317.79 1058.24,1317.58C1057.13,1317.28 1056.05,1317.24 1055,1317.34C1053.19,1317.51 1051.67,1318.7 1051.13,1320.35C1043.58,1344.15 1044.57,1367.95 1050.93,1391.75C1052.38,1397.14 1054.42,1402.37 1057.02,1407.35C1062.21,1417.57 1067.48,1426.88 1074.83,1434.17C1084.77,1444.03 1097.96,1450.34 1109.46,1452.99C1113.43,1453.9 1117.55,1453.98 1121.44,1453.28C1122.07,1453.15 1122.53,1452.65 1122.57,1452.04C1122.61,1451.43 1122.23,1450.87 1121.62,1450.67C1118.05,1449.4 1114.55,1447.75 1111.15,1445.61C1110.78,1445.36 1110.64,1444.9 1110.84,1444.51C1111.03,1444.12 1111.49,1443.92 1111.93,1444.05C1118.11,1445.83 1124.04,1446.49 1129.25,1445.03C1129.67,1444.9 1129.95,1444.54 1129.98,1444.12C1130,1443.7 1129.75,1443.32 1129.35,1443.14C1109.22,1434.55 1095.62,1426.64 1084.51,1414.69C1063.93,1392.55 1056.17,1362.85 1060.21,1331.86C1060.54,1329.45 1061.88,1327.26 1063.94,1325.81C1066.52,1323.97 1066.69,1321.33 1063.76,1318.99C1063.17,1318.52 1062.38,1318.11 1061.52,1318.04Z" style="fill:white;"/>
    </g>
    <path d="M1305.97,1002.75C1301.89,985.744 1295.27,969.454 1286.32,954.43C1283.43,949.605 1280.39,945.199 1277.22,941.481C1278.39,962.545 1269.23,985.901 1259.61,1004.48C1258.61,1006.38 1259.16,1008.72 1260.89,1009.99C1276.57,1021.38 1297.43,1035.24 1315.35,1041.85C1315.35,1041.85 1309.57,1017.77 1305.97,1002.75Z" style="fill:rgb(255,119,0);"/>
    <path d="M1478.01,1126.31C1478.01,1126.28 1478.02,1126.25 1478.02,1126.22C1480.15,1110.65 1479.41,1090.46 1476.81,1074.11C1476.67,1073.32 1476.02,1072.73 1475.22,1072.67C1474.43,1072.61 1473.69,1073.09 1473.44,1073.85C1466.73,1093.88 1461.05,1108.22 1456.53,1116.12C1454.82,1118.95 1453.99,1122.22 1454.13,1125.53C1454.69,1144.61 1447.62,1167.44 1446.21,1184.76C1462.84,1176.8 1474.94,1148.85 1478.01,1126.31Z" style="fill:rgb(255,119,0);"/>
    <path d="M1457.99,1174.45C1456.53,1176.04 1454.31,1176.71 1452.2,1176.19C1450.1,1175.67 1448.45,1174.04 1447.9,1171.95C1429.49,1102.48 1392.49,989.612 1277.22,941.481C1285.32,955.379 1292.44,966.843 1298.04,981.563C1316.08,1028.95 1320.61,1083.44 1308.79,1140.8C1308.53,1142.04 1307.74,1143.1 1306.62,1143.7C1305.51,1144.3 1304.18,1144.38 1303.01,1143.92C1285.4,1136.99 1269.68,1131.27 1254.23,1121.82C1232,1108.22 1211.2,1088.88 1191.16,1067.04C1190.99,1066.85 1190.71,1066.8 1190.48,1066.92C1190.25,1067.03 1190.13,1067.29 1190.17,1067.54C1207.71,1156.96 1232.33,1232.12 1272.11,1278.01C1272.82,1278.8 1272.96,1279.96 1272.46,1280.9C1271.96,1281.84 1270.92,1282.37 1269.87,1282.22C1264.62,1281.55 1259.69,1280.77 1254.99,1279.31C1245,1276.21 1236.15,1271.05 1228.54,1265.38C1229.23,1311.02 1237.83,1354.91 1258.17,1396.19C1262.25,1389.26 1267.32,1381.58 1272.26,1374.69C1278.83,1365.51 1285.98,1358.13 1292.71,1350.84C1315.88,1325.7 1341.11,1305 1370.89,1287.71C1353.76,1301.83 1339.96,1317.81 1331.78,1336.96C1366.33,1309.86 1408,1298.89 1445.13,1309C1448.69,1310.01 1451.42,1312.88 1452.23,1316.49C1459.55,1349.31 1458.48,1376.41 1451.18,1398.67C1438.18,1438.31 1415.42,1459.36 1390.9,1469.28C1373.81,1476.2 1349.25,1477.94 1329.72,1471.78C1317.77,1468.01 1308.36,1462.6 1299.55,1452.51C1301.08,1457.37 1303.38,1462.37 1306.77,1466.41C1318.18,1480.03 1331.22,1492.43 1342.44,1504.94C1347.24,1510.3 1351.5,1515.72 1355.72,1521.14C1361.88,1528.89 1365.34,1538.44 1365.58,1548.34C1365.63,1550.05 1365.66,1551.56 1365.69,1552.65C1365.7,1553.09 1365.91,1553.5 1366.25,1553.76C1366.6,1554.03 1367.05,1554.12 1367.47,1554.02C1384.84,1549.75 1401.75,1543.47 1415.72,1533.45C1435.26,1519.41 1449.92,1499 1460.18,1475.45C1469.5,1454.1 1476.12,1429 1477.83,1398.7C1478.91,1379.5 1473.55,1356.33 1471.75,1333.59C1476.9,1341.2 1484.14,1349.38 1487.6,1357.12C1491.1,1364.96 1491.44,1373.78 1494.83,1380.79C1496.87,1385.02 1500.61,1388.31 1504.43,1391.51C1504.92,1391.93 1505.6,1392.03 1506.19,1391.77C1506.77,1391.51 1507.16,1390.94 1507.17,1390.3C1507.35,1382.23 1506.4,1374.65 1504.81,1366.51C1494.89,1315.56 1468.18,1261.51 1412.86,1212.28C1447.52,1230.66 1476.17,1252.71 1498.27,1278.73C1507.23,1222.55 1509.95,1155.13 1487.82,1095.14C1484.94,1087.36 1482.15,1079.97 1476.45,1073.16C1476.95,1077.74 1477.61,1082.31 1477.94,1087.24C1478.79,1100.01 1479.64,1113.61 1477.88,1124.09C1475.49,1138.32 1471.71,1149.68 1467.66,1158.58C1464.64,1165.2 1461.54,1170.61 1458.35,1174.07C1458.23,1174.19 1458.11,1174.32 1457.99,1174.45Z" style="fill:rgb(247,55,24);"/>
    <path d="M1245.64,1445.45C1204.48,1467.57 1169.14,1501.7 1144.7,1543.86C1141.93,1548.69 1142.38,1554.72 1145.85,1559.08C1175.32,1596.01 1206.37,1626.61 1237.39,1643.3C1243.01,1613.04 1250.37,1577.29 1259.71,1535.23C1261.33,1521.36 1265.82,1509.32 1275.06,1500.28C1259.54,1505.33 1243.48,1510.14 1245.54,1522.42L1240.22,1522.3L1245.64,1445.45Z" style="fill:rgb(236,229,221);stroke:rgb(236,229,221);stroke-width:1px;"/>
    <path d="M1346.31,1553.41C1349.23,1549.74 1349.41,1544.59 1346.77,1540.72C1321.85,1504.66 1288.77,1472.59 1245.62,1445.42C1243.4,1470.25 1241.63,1495.12 1240.24,1519.95C1240.2,1520.67 1240.48,1521.37 1241.01,1521.85C1241.54,1522.34 1242.26,1522.57 1242.97,1522.46C1243.07,1522.45 1243.17,1522.45 1243.27,1522.45C1244.53,1522.29 1245.51,1521.27 1245.61,1520C1246.31,1510.18 1260.33,1505.52 1275.16,1500.24C1271.01,1503.44 1268.93,1506.77 1266.3,1511.62C1260.25,1522.75 1259.19,1536.7 1255.79,1549.96C1250.85,1569.2 1247.2,1589.63 1243.46,1610C1241.42,1621.07 1238.82,1632.01 1237.22,1642.99C1237.2,1643.15 1237.31,1643.3 1237.47,1643.33C1241.29,1644 1245.98,1644.54 1249.6,1642.92C1263.62,1636.64 1278.07,1624.93 1290.2,1614.47C1311.12,1596.41 1328.44,1575.93 1346.31,1553.41Z" style="fill:rgb(220,192,136);stroke:rgb(220,192,136);stroke-width:1px;"/>
    <path d="M1226.58,1535.62C1226.79,1536.17 1227.34,1536.51 1227.92,1536.45C1228.51,1536.38 1228.97,1535.93 1229.05,1535.35C1230.8,1522.17 1228.62,1510.44 1219.02,1501.4C1217.78,1500.23 1216.36,1499.27 1214.82,1498.55C1210.46,1496.62 1205.79,1496.22 1200.86,1496.92C1196.73,1497.47 1193.13,1500.05 1191.28,1503.79C1189.57,1507.23 1189.8,1510.54 1192.09,1513.71C1193.92,1516.25 1196.87,1517.73 1200,1517.69C1214.7,1517.39 1222.5,1524.52 1226.58,1535.62Z" style="stroke:black;stroke-width:1px;"/>
    <g transform="matrix(-1,0,0,1,2491.41,-0.352817)">
        <path d="M1226.58,1535.62C1226.79,1536.17 1227.34,1536.51 1227.92,1536.45C1228.51,1536.38 1228.97,1535.93 1229.05,1535.35C1230.8,1522.17 1228.62,1510.44 1219.02,1501.4C1217.78,1500.23 1216.36,1499.27 1214.82,1498.55C1210.46,1496.62 1205.79,1496.22 1200.86,1496.92C1196.73,1497.47 1193.13,1500.05 1191.28,1503.79C1189.57,1507.23 1189.8,1510.54 1192.09,1513.71C1193.92,1516.25 1196.87,1517.73 1200,1517.69C1214.7,1517.39 1222.5,1524.52 1226.58,1535.62Z" style="stroke:black;stroke-width:1px;"/>
    </g>
    <path d="M1075.62,1575.38C1073.69,1574.91 1071.66,1575.5 1070.29,1576.94C1064.93,1582.5 1051.23,1596.84 1051.23,1596.84C1032.09,1616.18 1022.5,1637.81 1021.59,1656.83C1038.07,1626.87 1059.71,1601.2 1088.12,1581.18C1085.01,1578.77 1081.15,1576.69 1075.62,1575.38Z" style="fill:rgb(254,222,23);"/>
    <path d="M1091.07,1593.25C1093.45,1589.88 1094.94,1586.49 1096.98,1584.3C1094.29,1582.89 1091.51,1580.83 1087.2,1580.32C1057.89,1601.26 1036.57,1628.6 1021.58,1656.85C1031.95,1647.32 1042.39,1637.83 1052.76,1630C1060.79,1623.93 1071.27,1618.34 1079.83,1615.62C1084.18,1614.28 1087.5,1610.73 1088.55,1606.29C1089.46,1602.31 1089.81,1597.88 1091.07,1593.25Z" style="fill:rgb(247,55,24);"/>
    <path d="M1105.59,1587.73L1096.69,1584.04C1086.34,1592.05 1088.65,1610.14 1087.47,1623.48C1081.37,1692.88 1094.41,1728.18 1107.37,1751.64C1108.81,1754.23 1111.3,1756.07 1114.19,1756.7C1114.19,1756.71 1114.19,1756.71 1114.19,1756.71C1114.64,1756.81 1115.1,1756.69 1115.45,1756.39C1115.8,1756.09 1115.98,1755.65 1115.95,1755.19C1115.64,1749.75 1116.01,1743.46 1116.54,1737.4C1116.74,1735.17 1116.57,1732.92 1116.06,1730.73C1106.08,1688.41 1097.31,1644.05 1105.59,1587.73Z" style="fill:rgb(254,222,23);"/>
    <path d="M1133.43,1596.07L1105.44,1587.6C1100.55,1617.33 1101.2,1645.03 1104.53,1671.74C1106.04,1683.87 1108.5,1695.41 1110.48,1707.31C1111.06,1710.87 1111.81,1714.4 1112.71,1717.89C1114.26,1723.9 1116.61,1732.91 1116.61,1732.91C1114.29,1688.37 1116.58,1639.01 1133.43,1596.07Z" style="fill:rgb(255,119,0);"/>
    <path d="M1156.28,1603.76C1154.32,1600.55 1150.93,1598.48 1147.18,1598.22C1142.52,1597.89 1137.97,1596.95 1133.51,1595.56C1113.66,1645.74 1110.26,1691.78 1116.55,1735.26C1122.86,1715.83 1131.55,1699.81 1142.76,1685.46C1143.31,1684.76 1144.22,1684.46 1145.08,1684.69C1145.94,1684.92 1146.58,1685.64 1146.71,1686.53C1151.75,1720.22 1165.09,1752.7 1187.57,1780.49C1203.28,1799.92 1223.71,1816.07 1247.95,1832.33C1252.05,1781.21 1251.82,1730.8 1247.94,1681.01C1206.7,1660.64 1170.89,1626.59 1156.28,1603.76Z" style="fill:rgb(247,55,24);"/>
    <g transform="matrix(-1,0,0,1,2495.87,-0.0240791)">
        <path d="M1075.62,1575.38C1073.69,1574.91 1071.66,1575.5 1070.29,1576.94C1064.93,1582.5 1051.23,1596.84 1051.23,1596.84C1032.09,1616.18 1022.5,1637.81 1021.59,1656.83C1038.07,1626.87 1059.71,1601.2 1088.12,1581.18C1085.01,1578.77 1081.15,1576.69 1075.62,1575.38Z" style="fill:rgb(254,222,23);"/>
    </g>
    <g transform="matrix(-1,0,0,1,2495.87,-0.0240791)">
        <path d="M1090.99,1593.36C1093.36,1589.98 1094.94,1586.49 1096.98,1584.3C1094.29,1582.89 1091.51,1580.83 1087.2,1580.32C1057.89,1601.26 1036.57,1628.6 1021.58,1656.85C1031.95,1647.32 1042.39,1637.83 1052.76,1630C1060.74,1623.97 1071.15,1618.41 1079.67,1615.67C1084.02,1614.31 1087.32,1610.76 1088.36,1606.32C1089.28,1602.33 1089.63,1598 1090.99,1593.36Z" style="fill:rgb(247,55,24);"/>
    </g>
    <g transform="matrix(-1,0,0,1,2495.87,-0.0240791)">
        <path d="M1105.59,1587.73L1096.69,1584.04C1086.34,1592.05 1088.65,1610.14 1087.47,1623.48C1081.37,1692.88 1094.41,1728.18 1107.37,1751.64C1108.81,1754.23 1111.3,1756.07 1114.19,1756.7C1114.19,1756.71 1114.19,1756.71 1114.19,1756.71C1114.64,1756.81 1115.1,1756.69 1115.45,1756.39C1115.8,1756.09 1115.98,1755.65 1115.95,1755.19C1115.64,1749.82 1116.02,1743.81 1116.56,1737.86C1116.76,1735.61 1116.59,1733.35 1116.08,1731.16C1106.1,1688.82 1097.31,1644.04 1105.59,1587.73Z" style="fill:rgb(254,222,23);"/>
    </g>
    <g transform="matrix(-1,0,0,1,2495.87,-0.0240791)">
        <path d="M1133.43,1596.07L1105.44,1587.6C1100.55,1617.33 1101.2,1645.03 1104.53,1671.74C1106.05,1683.99 1108.55,1695.63 1110.54,1707.65C1111.08,1710.97 1111.76,1714.27 1112.58,1717.53C1114.14,1723.76 1116.66,1733.69 1116.66,1733.69C1114.34,1689.15 1116.58,1639.01 1133.43,1596.07Z" style="fill:rgb(255,119,0);"/>
    </g>
    <g transform="matrix(-1,0,0,1,2495.87,-0.0240791)">
        <path d="M1156.34,1603.85C1154.34,1600.58 1150.85,1598.5 1147.03,1598.31C1142.32,1598.08 1137.67,1597.35 1133.23,1595.97C1113.38,1646.15 1110.26,1691.78 1116.55,1735.26C1122.86,1715.83 1131.55,1699.81 1142.76,1685.46C1143.31,1684.76 1144.22,1684.46 1145.08,1684.69C1145.94,1684.92 1146.58,1685.64 1146.71,1686.53C1151.75,1720.22 1165.09,1752.7 1187.57,1780.49C1203.28,1799.92 1223.71,1816.07 1247.95,1832.33C1248.43,1781.8 1257.35,1729.35 1248.03,1681.04C1206.84,1660.7 1171,1626.68 1156.34,1603.85Z" style="fill:rgb(247,55,24);"/>
    </g>
    <path d="M1074.31,1871.91C1057.8,1826.73 1050.24,1787.24 1053.15,1744.02C1054.24,1727.76 1059.69,1708.82 1062.52,1691.98C1063.77,1684.54 1063.56,1672.87 1062.48,1664.21C1062.42,1663.73 1062.04,1663.36 1061.56,1663.28C1061.08,1663.21 1060.61,1663.46 1060.4,1663.9C1042.82,1701.5 1033.45,1744.83 1033.64,1794.8C1035.64,1849.75 1053.83,1887.06 1081.23,1903.19C1081.89,1903.56 1082.71,1903.45 1083.26,1902.94C1083.81,1902.43 1083.97,1901.62 1083.66,1900.94C1079.39,1891.45 1076.01,1881.82 1074.31,1871.91Z" style="fill:rgb(254,222,23);"/>
    <path d="M1087.09,1802.97C1068.82,1776.19 1065.16,1730.09 1062.26,1693.54C1060.52,1699.03 1059.77,1704.77 1058.47,1710.52C1056.26,1720.3 1054.28,1730.44 1053.19,1740.68C1051.66,1755.13 1051.66,1769.83 1052.97,1784.44C1055.9,1817.1 1065.2,1848.93 1075,1875.76C1080.51,1860.06 1088.42,1846.33 1104.64,1839.1L1087.09,1802.97Z" style="fill:rgb(255,119,0);"/>
    <g transform="matrix(1,0,0,1,-0.0188341,-0.199642)">
        <path d="M1249.62,1890.47C1248.62,1887.16 1243.45,1884.88 1242.17,1881.64C1240.26,1876.81 1241.69,1871.26 1238.68,1866.89C1222.02,1842.72 1197.42,1823.41 1173.71,1800.45C1161.15,1788.3 1148.21,1770.05 1140.56,1755.15C1140.24,1754.5 1139.53,1754.14 1138.82,1754.28C1138.11,1754.42 1137.58,1755.02 1137.53,1755.74C1136.37,1775.9 1138.72,1796.71 1145.91,1813.9C1146.29,1814.73 1146.05,1815.71 1145.33,1816.27C1144.61,1816.83 1143.6,1816.82 1142.88,1816.25C1098.88,1780.72 1072.4,1739.44 1062.26,1693.33C1061.85,1704.93 1063.77,1719.61 1065.06,1730.82C1067.25,1749.88 1070.84,1768.13 1077.81,1785.87C1082,1796.52 1087.27,1806.79 1093.02,1816.96C1097.23,1824.41 1099.4,1832 1104.62,1839.12C1111.41,1834.81 1128.59,1835.64 1133.46,1842.3C1148.52,1862.87 1159.42,1886.88 1168.64,1910.57C1183.06,1947.6 1192.77,1985.31 1194.7,2025.43C1194.98,2031.48 1197.42,2037.23 1201.59,2041.62C1215.71,2056.5 1231.3,2067.1 1249.67,2075.39L1249.62,1890.47Z" style="fill:rgb(247,55,24);"/>
    </g>
    <g transform="matrix(-1,0,0,1,2499.13,-0.283102)">
        <path d="M1074.31,1871.91C1057.8,1826.73 1050.24,1787.24 1053.15,1744.02C1054.24,1727.76 1059.69,1708.82 1062.52,1691.98C1063.77,1684.54 1063.56,1672.87 1062.48,1664.21C1062.42,1663.73 1062.04,1663.36 1061.56,1663.28C1061.08,1663.21 1060.61,1663.46 1060.4,1663.9C1042.82,1701.5 1033.45,1744.83 1033.64,1794.8C1035.64,1849.75 1053.83,1887.06 1081.23,1903.19C1081.89,1903.56 1082.71,1903.45 1083.26,1902.94C1083.81,1902.43 1083.97,1901.62 1083.66,1900.94C1079.39,1891.45 1076.01,1881.82 1074.31,1871.91Z" style="fill:rgb(254,222,23);"/>
    </g>
    <g transform="matrix(-1,0,0,1,2499.13,-0.283102)">
        <path d="M1087.09,1802.97C1068.82,1776.19 1065.16,1730.09 1062.26,1693.54C1060.52,1699.03 1059.77,1704.77 1058.47,1710.52C1056.26,1720.3 1054.28,1730.44 1053.19,1740.68C1051.66,1755.13 1051.66,1769.83 1052.97,1784.44C1055.9,1817.1 1065.2,1848.93 1075,1875.76C1080.51,1860.06 1088.42,1846.33 1104.64,1839.1L1087.09,1802.97Z" style="fill:rgb(255,119,0);"/>
    </g>
    <g transform="matrix(-1,0,0,1,2499.13,-0.283102)">
        <path d="M1249.79,1890.8C1248.79,1887.49 1243.45,1884.88 1242.17,1881.64C1240.26,1876.81 1241.69,1871.26 1238.68,1866.89C1222.02,1842.72 1197.42,1823.41 1173.71,1800.45C1161.15,1788.3 1148.21,1770.05 1140.56,1755.15C1140.24,1754.5 1139.53,1754.14 1138.82,1754.28C1138.11,1754.42 1137.58,1755.02 1137.53,1755.74C1136.37,1775.9 1138.72,1796.71 1145.91,1813.9C1146.29,1814.73 1146.05,1815.71 1145.33,1816.27C1144.61,1816.83 1143.6,1816.82 1142.88,1816.25C1098.88,1780.72 1072.4,1739.44 1062.26,1693.33C1061.85,1704.93 1063.77,1719.61 1065.06,1730.82C1067.25,1749.88 1070.84,1768.13 1077.81,1785.87C1082,1796.52 1087.27,1806.79 1093.02,1816.96C1097.23,1824.41 1099.4,1832 1104.62,1839.12C1111.41,1834.81 1128.59,1835.64 1133.46,1842.3C1148.52,1862.87 1159.42,1886.88 1168.64,1910.57C1183.06,1947.61 1192.77,1985.32 1194.71,2025.44C1194.98,2031.48 1197.41,2037.21 1201.56,2041.6C1215.65,2056.5 1231.12,2067.16 1249.5,2075.45C1255.94,2014.8 1258.7,1953.55 1249.79,1890.8Z" style="fill:rgb(247,55,24);"/>
    </g>
    <path d="M1125.65,1866.96C1121.04,1861.31 1112.99,1859.88 1106.72,1863.62C1097.04,1869.39 1093.97,1879.1 1096.77,1892.29C1096.83,1892.57 1096.88,1892.85 1096.93,1893.14C1099.31,1906.73 1112.84,1911.65 1132.24,1912.02C1132.46,1912.03 1132.64,1912.19 1132.66,1912.4C1132.69,1912.62 1132.56,1912.82 1132.35,1912.88C1126.69,1914.18 1119.79,1914.1 1112.47,1913.55C1111.11,1913.46 1109.77,1913.98 1108.84,1914.98C1107.9,1915.98 1107.47,1917.35 1107.66,1918.71C1109.95,1936.02 1123.09,1942.4 1141.67,1940.8C1142.13,1940.75 1142.57,1941.03 1142.73,1941.48C1142.88,1941.92 1142.72,1942.41 1142.33,1942.67C1138.37,1945.08 1133.48,1946.61 1127.38,1947C1125.93,1947.1 1124.61,1947.82 1123.75,1948.98C1122.88,1950.14 1122.57,1951.61 1122.88,1953.02C1123.73,1956.93 1124.85,1961.99 1125.71,1965.87C1127.27,1972.9 1133.82,1977.66 1140.99,1976.97C1145.13,1976.57 1149.76,1975.09 1154.73,1972.82C1155.11,1972.65 1155.54,1972.77 1155.79,1973.1C1156.03,1973.42 1156.01,1973.87 1155.74,1974.18C1150.17,1980.3 1142.57,1984.17 1132.14,1984.91C1129.72,1985.08 1127.56,1986.52 1126.47,1988.69C1125.27,1991.08 1123.69,1993.36 1121.37,1995.45C1121.13,1995.66 1120.79,1995.68 1120.53,1995.49C1120.28,1995.31 1120.19,1994.97 1120.31,1994.68C1123.7,1986.78 1124.28,1978.53 1121.74,1969.89C1121.69,1969.72 1121.64,1969.55 1121.6,1969.38C1120.56,1965.36 1118.36,1961.46 1115.21,1957.67C1112.12,1953.91 1106.77,1952.93 1102.56,1955.35C1100.26,1956.73 1097.99,1958.56 1095.72,1960.71C1095.56,1960.86 1095.32,1960.88 1095.14,1960.76C1094.96,1960.63 1094.89,1960.4 1094.97,1960.2C1096.53,1956.19 1097.35,1952.13 1097.42,1948.01C1097.54,1940.79 1094.36,1933.91 1088.78,1929.34C1081.03,1922.66 1072.77,1914.4 1064.44,1905.89C1063.76,1905.2 1062.78,1904.89 1061.82,1905.07C1060.87,1905.25 1060.07,1905.9 1059.69,1906.79C1056.91,1913.31 1053.38,1919.76 1048.17,1924.59C1047.92,1924.82 1047.55,1924.84 1047.27,1924.65C1046.99,1924.46 1046.88,1924.11 1047,1923.79C1050.54,1914.25 1050.64,1905.55 1048.05,1897.5C1045.65,1890.12 1039.76,1884.4 1032.31,1882.21C1019.35,1878.32 1008.5,1886.26 998.907,1901.3C997.22,1903.91 996.664,1907.09 997.363,1910.12C998.063,1913.14 999.959,1915.76 1002.62,1917.36C1002.6,1917.4 1002.6,1917.4 1002.6,1917.4C1034.88,1936.87 1066.76,1954.02 1089.43,1974.19C1132.29,2012.31 1148.56,2055.49 1115.42,2106.87C1111.33,2113.2 1112.34,2121.54 1117.83,2126.71C1121.54,2130.24 1126.8,2132.83 1133.43,2134.58C1139.79,2136.36 1146.62,2134.81 1151.6,2130.46C1158.22,2124.73 1161.64,2116.95 1163,2107.86C1163.58,2103.91 1163.18,2099.86 1161.82,2096.1C1159.06,2088.17 1152.68,2082.85 1142.46,2080.34C1142.14,2080.26 1141.92,2079.96 1141.93,2079.64C1141.94,2079.31 1142.18,2079.03 1142.51,2078.97C1150.13,2077.74 1158.03,2078.45 1166.33,2082.04C1167.21,2082.42 1168.21,2082.34 1169.02,2081.83C1169.82,2081.31 1170.32,2080.43 1170.34,2079.48C1170.59,2069.84 1171.1,2047.18 1171.31,2037.85C1171.37,2035.14 1169.74,2032.68 1167.22,2031.69C1158.96,2028.49 1150.42,2028.91 1141.66,2032.02C1141.25,2032.17 1140.79,2032.03 1140.52,2031.68C1140.26,2031.33 1140.25,2030.85 1140.51,2030.49C1147.5,2020.95 1156.88,2015.19 1169.15,2014.02C1170.18,2013.93 1170.95,2013.03 1170.86,2011.99C1165.32,1942.77 1149.24,1896.63 1125.65,1866.96Z" style="fill:rgb(243,201,151);"/>
    <g transform="matrix(-1,0,0,1,2495,-0.797653)">
        <path d="M1125.65,1866.96C1121.04,1861.31 1112.99,1859.88 1106.72,1863.62C1097.04,1869.39 1093.97,1879.1 1096.77,1892.29C1096.83,1892.57 1096.88,1892.85 1096.93,1893.14C1099.31,1906.73 1112.84,1911.65 1132.24,1912.02C1132.46,1912.03 1132.64,1912.19 1132.66,1912.4C1132.69,1912.62 1132.56,1912.82 1132.35,1912.88C1126.69,1914.18 1119.79,1914.1 1112.47,1913.55C1111.11,1913.46 1109.77,1913.98 1108.84,1914.98C1107.9,1915.98 1107.47,1917.35 1107.66,1918.71C1109.95,1936.02 1123.09,1942.4 1141.67,1940.8C1142.13,1940.75 1142.57,1941.03 1142.73,1941.48C1142.88,1941.92 1142.72,1942.41 1142.33,1942.67C1138.37,1945.08 1133.48,1946.61 1127.38,1947C1125.93,1947.1 1124.61,1947.82 1123.75,1948.98C1122.88,1950.14 1122.57,1951.61 1122.88,1953.02C1123.73,1956.93 1124.85,1961.99 1125.71,1965.87C1127.27,1972.9 1133.82,1977.66 1140.99,1976.97C1145.13,1976.57 1149.76,1975.09 1154.73,1972.82C1155.11,1972.65 1155.54,1972.77 1155.79,1973.1C1156.03,1973.42 1156.01,1973.87 1155.74,1974.18C1150.17,1980.3 1142.57,1984.17 1132.14,1984.91C1129.72,1985.08 1127.56,1986.52 1126.47,1988.69C1125.27,1991.08 1123.69,1993.36 1121.37,1995.45C1121.13,1995.66 1120.79,1995.68 1120.53,1995.49C1120.28,1995.31 1120.19,1994.97 1120.31,1994.68C1123.7,1986.78 1124.28,1978.53 1121.74,1969.89C1121.69,1969.72 1121.64,1969.55 1121.6,1969.38C1120.56,1965.36 1118.36,1961.46 1115.21,1957.67C1112.12,1953.91 1106.77,1952.93 1102.56,1955.35C1100.26,1956.73 1097.99,1958.56 1095.72,1960.71C1095.56,1960.86 1095.32,1960.88 1095.14,1960.76C1094.96,1960.63 1094.89,1960.4 1094.97,1960.2C1096.53,1956.19 1097.35,1952.13 1097.42,1948.01C1097.54,1940.79 1094.36,1933.91 1088.78,1929.34C1081.03,1922.66 1072.77,1914.4 1064.44,1905.89C1063.76,1905.2 1062.78,1904.89 1061.82,1905.07C1060.87,1905.25 1060.07,1905.9 1059.69,1906.79C1056.91,1913.31 1053.38,1919.76 1048.17,1924.59C1047.92,1924.82 1047.55,1924.84 1047.27,1924.65C1046.99,1924.46 1046.88,1924.11 1047,1923.79C1050.54,1914.25 1050.64,1905.55 1048.05,1897.5C1045.65,1890.12 1039.76,1884.4 1032.31,1882.21C1019.35,1878.32 1008.5,1886.26 998.907,1901.3C997.22,1903.91 996.664,1907.09 997.363,1910.12C998.063,1913.14 999.959,1915.76 1002.62,1917.36C1002.6,1917.4 1002.6,1917.4 1002.6,1917.4C1034.88,1936.87 1066.76,1954.02 1089.43,1974.19C1132.29,2012.31 1148.56,2055.49 1115.42,2106.87C1111.33,2113.2 1112.34,2121.54 1117.83,2126.71C1121.54,2130.24 1126.8,2132.83 1133.43,2134.58C1139.79,2136.36 1146.62,2134.81 1151.6,2130.46C1158.22,2124.73 1161.64,2116.95 1163,2107.86C1163.58,2103.91 1163.18,2099.86 1161.82,2096.1C1159.06,2088.17 1152.68,2082.85 1142.46,2080.34C1142.14,2080.26 1141.92,2079.96 1141.93,2079.64C1141.94,2079.31 1142.18,2079.03 1142.51,2078.97C1150.13,2077.74 1158.03,2078.45 1166.33,2082.04C1167.21,2082.42 1168.21,2082.34 1169.02,2081.83C1169.82,2081.31 1170.32,2080.43 1170.34,2079.48C1170.59,2069.84 1171.1,2047.18 1171.31,2037.85C1171.37,2035.14 1169.74,2032.68 1167.22,2031.69C1158.96,2028.49 1150.42,2028.91 1141.66,2032.02C1141.25,2032.17 1140.79,2032.03 1140.52,2031.68C1140.26,2031.33 1140.25,2030.85 1140.51,2030.49C1147.5,2020.95 1156.88,2015.19 1169.15,2014.02C1170.18,2013.93 1170.95,2013.03 1170.86,2011.99C1165.32,1942.77 1149.24,1896.63 1125.65,1866.96Z" style="fill:rgb(243,201,151);"/>
    </g>
    <path d="M1072.78,1990.88C1072.28,1990.55 1071.63,1990.5 1071.08,1990.76C1070.53,1991.02 1070.16,1991.54 1070.09,1992.14C1066.35,2011.97 1023.76,2041.35 958.333,2075.67C943.506,2083.8 929.835,2090.81 918.632,2100.16C901.736,2114.25 889.606,2131.25 880.822,2146.41C867.608,2169.2 863.5,2191.75 867.781,2218.15C867.832,2218.46 868.077,2218.7 868.387,2218.74C868.698,2218.79 869.002,2218.63 869.14,2218.35C903.479,2148.41 954.146,2111.37 1017.78,2100.44C1031.41,2068.55 1054.53,2039.49 1092.07,2014.73C1092.93,2014.16 1093.53,2013.26 1093.73,2012.24C1093.92,2011.23 1093.7,2010.17 1093.11,2009.32C1088.29,2002.82 1080.94,1996.25 1072.78,1990.88Z" style="fill:rgb(254,222,23);"/>
    <path d="M1079.32,1995.52C1061.33,2027.83 1032.05,2055.27 995.711,2072.6C991.695,2074.51 987.524,2076.08 983.242,2077.29C937.653,2090.37 883.272,2142.67 882.464,2194.16C893.594,2181.26 906.116,2163.74 922.969,2148.41C950.41,2123.45 985.53,2101.92 1016.54,2098.01C1027.09,2082.18 1036.75,2066.44 1047.71,2053.13C1061.07,2036.9 1077.74,2024.92 1094.67,2013.09C1095.05,2012.82 1095.14,2012.31 1094.89,2011.93C1090.83,2005.81 1085.53,2000.4 1079.32,1995.52Z" style="fill:rgb(255,119,0);"/>
    <path d="M1026.77,2082.36C1001.31,2081.18 973.048,2091.05 946.251,2112.17C921.639,2126.81 893.248,2167.47 882.465,2194.16C893.443,2182.25 908.343,2162.57 924.184,2147.36C932.248,2139.63 941.364,2133.78 948.555,2129.43C969.043,2117.04 990.761,2106.41 1015.93,2101.33C1017.27,2101.07 1018.4,2100.18 1018.98,2098.94C1021.23,2094.16 1026.77,2082.36 1026.77,2082.36Z" style="fill:rgb(247,55,24);"/>
    <path d="M1049.41,2185.43C1048.8,2183.05 1048.36,2180.64 1048.1,2178.21C1044.87,2146.97 1047.62,2116.93 1053.32,2087.49C1053.46,2086.79 1053.12,2086.08 1052.5,2085.74C1051.87,2085.41 1051.1,2085.52 1050.59,2086.01C1038.42,2099.13 1030.51,2121.38 1026.19,2151.37C1023.83,2167.1 1025.43,2183.18 1030.86,2198.13C1044.24,2235.15 1061.11,2261.62 1080.29,2281.04C1080.98,2281.72 1082.06,2281.8 1082.86,2281.25C1083.65,2280.7 1083.95,2279.67 1083.56,2278.78C1071.14,2250.36 1058.81,2221.71 1049.41,2185.43Z" style="fill:rgb(254,222,23);"/>
    <path d="M1106.29,2046.56C1106.2,2046.01 1105.82,2045.56 1105.29,2045.39C1104.77,2045.21 1104.19,2045.34 1103.79,2045.72C1099.34,2050.13 1095.97,2055.6 1093.37,2061.85C1090.69,2068.3 1089.16,2075.18 1088.85,2082.16C1088.43,2091.52 1089.15,2099.12 1090.67,2105.52C1090.82,2106.13 1091.31,2106.59 1091.92,2106.7C1092.53,2106.81 1093.15,2106.56 1093.52,2106.05C1095.85,2102.73 1098,2099.32 1099.9,2095.78C1105.36,2085.7 1108.11,2074.36 1107.89,2062.89C1107.78,2057.41 1107.18,2051.97 1106.29,2046.56Z" style="fill:rgb(254,222,23);"/>
    <path d="M1106.57,2138.06L1087.91,2115.7C1084.18,2156.47 1087.38,2195.66 1093.7,2234.14C1097.74,2248.78 1101.88,2264.19 1107.15,2277.55C1120.34,2311.04 1138.53,2338.45 1151.22,2355.9C1148.13,2340.84 1140.52,2326.88 1135.36,2311.86C1127.89,2290.13 1118.34,2269.19 1113.05,2245.54C1105.76,2212.95 1104.26,2176.56 1106.57,2138.06Z" style="fill:rgb(254,222,23);"/>
    <path d="M1221.33,2421.74C1219.35,2413.4 1217.06,2405.12 1214.48,2396.94C1207.57,2375.04 1199.75,2353.42 1190.29,2332.37C1190.01,2331.74 1189.36,2331.34 1188.66,2331.38C1187.97,2331.41 1187.36,2331.87 1187.14,2332.53C1182.62,2345.62 1176.54,2358.03 1186.21,2380.1C1187.21,2382.39 1188.14,2384.72 1189,2387.08C1199.48,2415.84 1207.84,2445.11 1209.7,2473.61C1210.39,2484.11 1210.1,2494.2 1209.02,2504.55C1206.88,2525.24 1199.03,2544.93 1186.34,2561.42C1166.53,2587.14 1136.54,2601.87 1098.66,2608.08C1078.7,2611.32 1058.25,2609.62 1039.1,2603.12C998.154,2589.35 965.07,2562.53 942.673,2533.8C942.673,2533.8 942.673,2533.8 942.673,2533.8C949.193,2572.37 971.879,2606.32 1005.02,2627.1C1038.16,2647.88 1078.6,2653.51 1116.16,2642.59C1152.03,2632.22 1181.04,2614.19 1202.17,2587.35C1222.59,2561.41 1233.03,2529.01 1231.61,2496.03C1230.55,2471.16 1227.17,2446.4 1221.33,2421.74Z" style="fill:rgb(247,55,24);"/>
    <path d="M1183.94,2564.48C1105.16,2629.46 1023.13,2615.04 942.696,2533.8C943.809,2536.57 945.023,2539.33 946.332,2542.08C966.912,2584.99 1007.69,2614.69 1054.85,2621.11C1072.18,2623.45 1089.59,2623.22 1107.08,2620.67C1140.43,2615.85 1169.22,2594.8 1183.94,2564.48C1183.94,2564.48 1183.94,2564.48 1183.94,2564.48Z" style="fill:rgb(254,222,23);"/>
    <path d="M1194.65,2401.45C1191.02,2392.22 1187.86,2382.82 1185.18,2373.27C1184.87,2372.26 1184.58,2371.24 1184.3,2370.23C1181.65,2360.82 1178.11,2351.68 1173.71,2342.94C1168.21,2332.15 1164.18,2321.51 1158.94,2311.58C1146.63,2288.23 1136.18,2272.04 1128.61,2252.39C1117.8,2224.34 1112.31,2194.59 1111.1,2172.64C1110.51,2161.91 1111.54,2152.1 1110.73,2142.58C1110.68,2142.02 1110.42,2141.51 1110,2141.13C1108.81,2140.06 1106.38,2137.88 1106.38,2137.88C1103.07,2164.58 1104.28,2196.74 1108.35,2223.4C1112.77,2252.37 1120.86,2276.1 1131.67,2305.29C1137.81,2321.87 1144.29,2338.86 1151.11,2355.6C1188.55,2419.2 1194.68,2483.18 1176.36,2547.47C1185.76,2544.41 1194.02,2538.21 1200.2,2530.81C1205.03,2525.03 1208.13,2518.01 1209.14,2510.55C1213.79,2474.67 1209.18,2438.32 1194.65,2401.45Z" style="fill:rgb(255,119,0);"/>
    <path d="M1020.54,2500.76C1009.54,2495.2 999.717,2490.66 990.132,2484C968.519,2468.98 949.174,2450.04 927.81,2433.03C922.308,2428.65 913.84,2420.89 906.155,2420.95C927.715,2449.66 952.525,2477.01 985.104,2501.13C1024.84,2528.54 1066.65,2530.67 1101.21,2516.19C1070.71,2520.21 1043.58,2515.66 1020.54,2500.76Z" style="fill:rgb(254,222,23);"/>
    <path d="M1128.5,2501.33C1122.13,2502.5 1115.03,2509.06 1109.26,2511.37C1099.82,2515.14 1091.39,2518.98 1082.57,2521.17C1069.74,2524.36 1056.82,2524.87 1044.73,2523.4C992.705,2517.1 947.981,2474.26 906.175,2421.01C930.743,2474.75 961.488,2518.82 1006.72,2539.61C1007.39,2539.91 1008.05,2540.23 1008.71,2540.55C1020.31,2546.11 1033.89,2551.62 1047.45,2555.22C1057,2557.76 1067.09,2557.46 1076.48,2554.34C1105.34,2544.69 1122.28,2523.77 1128.5,2501.33Z" style="fill:rgb(255,119,0);"/>
    <path d="M1155.25,2448.14C1155.23,2447.83 1155,2447.57 1154.7,2447.5C1154.39,2447.43 1154.07,2447.56 1153.91,2447.83C1142.38,2467.27 1127.86,2485.23 1106.36,2499.9C1106.07,2500.1 1105.9,2500.43 1105.91,2500.77C1105.91,2501.12 1106.1,2501.44 1106.39,2501.63C1111.56,2504.61 1118.83,2504.3 1127.53,2501.75C1127.7,2501.7 1127.88,2501.75 1127.99,2501.88C1128.11,2502.01 1128.14,2502.19 1128.07,2502.35C1105.77,2555.8 1060.77,2565.06 1003.9,2551.21C1003.57,2551.13 1003.23,2551.28 1003.06,2551.57C1002.89,2551.86 1002.93,2552.23 1003.17,2552.48C1011.12,2560.79 1020.16,2567.22 1030.35,2571.68C1065.18,2586.99 1105.92,2577.9 1130.93,2549.24C1155.37,2521.29 1158.02,2485.63 1155.25,2448.14Z" style="fill:rgb(247,55,24);"/>
    <path d="M1310.45,2436.74C1304.92,2417.61 1299.72,2395.19 1288.1,2376.01C1265.79,2339.19 1236.43,2304.15 1219.03,2263.36C1202.5,2224.61 1189.99,2183.48 1183.23,2138.66C1176.15,2178.37 1190.23,2221.21 1207.46,2264.68C1227.64,2315.58 1259.93,2367.73 1272.13,2421.49C1282.83,2468.64 1295.6,2515.6 1293.68,2563.93C1292.34,2597.54 1264.71,2648.76 1269.67,2686.93C1284.53,2660.83 1304.79,2608.47 1310.45,2574C1319.54,2529 1320.17,2483.3 1310.45,2436.74Z" style="fill:rgb(255,119,0);"/>
    <path d="M1287.59,2483.93C1284.54,2471.09 1281.79,2458.18 1279.36,2445.22C1275.72,2425.78 1270.61,2406.41 1263.34,2387.05C1251.03,2354.26 1233.63,2321.49 1219.63,2288.48C1205.78,2255.84 1189.54,2196.28 1181.43,2163.23C1180.12,2180.56 1183.32,2226.62 1199.73,2273.4C1207.56,2295.7 1220.13,2323.45 1234.93,2361.8C1244.07,2385.47 1252.44,2407.03 1258.25,2429.93C1269.64,2474.83 1277.81,2519.78 1276.57,2560.97C1274.7,2623.36 1257.54,2674.96 1232.36,2727.06C1223.26,2745.91 1210.98,2767.16 1203.41,2787.15C1236.17,2745.26 1248.4,2723.59 1265.43,2695.8C1273.86,2682.05 1279.05,2651 1282.06,2638.57C1283.36,2633.18 1284.15,2628.43 1284.62,2624.61C1285.53,2617.14 1286.79,2609.73 1288.38,2602.38C1296.8,2563.6 1297.29,2524.74 1287.59,2483.93Z" style="fill:rgb(254,222,23);"/>
    <path d="M1222.09,2094.8C1222.49,2091.1 1220.95,2087.45 1218.01,2085.16C1212.75,2081.19 1206.74,2077.41 1199.91,2073.85C1198.78,2073.26 1197.44,2073.19 1196.24,2073.66C1195.05,2074.13 1194.12,2075.09 1193.68,2076.29C1186.5,2096.54 1183.25,2117.57 1183.22,2139.25C1185.29,2175.57 1200.97,2231.51 1218.35,2266.41C1244.31,2318.52 1284.59,2359.49 1301.49,2409.96C1324.91,2479.89 1314.84,2560.41 1288.46,2647.26C1338.31,2567.03 1350.79,2484.55 1323.18,2399.64C1322.76,2398.36 1323.26,2396.97 1324.39,2396.25C1325.53,2395.54 1327.01,2395.69 1327.97,2396.63C1332.96,2401.83 1337.61,2407.52 1342.99,2412.33C1353.15,2421.4 1365.29,2429.64 1374.75,2439.37C1383.28,2448.15 1389.28,2458.3 1395.86,2468.82C1416.95,2502.54 1429.89,2542.06 1437.84,2583.34C1437.91,2583.72 1438.25,2584 1438.65,2583.98C1439.04,2583.96 1439.35,2583.65 1439.39,2583.26C1442.93,2542 1444.34,2489.93 1429.91,2451.8C1405.41,2387.09 1353.72,2326.06 1310.95,2260.19C1287.9,2224.68 1269.94,2184.8 1261.62,2145.9C1261.56,2145.64 1261.33,2145.45 1261.07,2145.44C1260.8,2145.42 1260.55,2145.6 1260.48,2145.86C1244.1,2201.47 1254.2,2268.04 1282.88,2324.16C1283.4,2325.13 1283.11,2326.33 1282.22,2326.96C1281.32,2327.6 1280.1,2327.48 1279.35,2326.68C1225.74,2267.57 1212.16,2187.38 1222.09,2094.8Z" style="fill:rgb(247,55,24);"/>
    <path d="M1379.81,2516.71C1379.77,2516.37 1379.49,2516.1 1379.15,2516.06C1378.8,2516.03 1378.48,2516.24 1378.37,2516.57C1366.07,2556.46 1353,2633.26 1331.82,2668.22C1302.38,2716.84 1264.14,2758.73 1234.02,2806.69C1213.61,2839.17 1199.42,2876.76 1186.17,2911.84C1186.08,2912.07 1186.16,2912.34 1186.37,2912.48C1186.58,2912.62 1186.86,2912.61 1187.04,2912.44C1205.29,2896.04 1219.08,2882.09 1235.53,2869.97C1261.07,2851.15 1284.59,2837.29 1301.07,2816.46C1327.63,2782.9 1338.95,2742.7 1335.71,2696.98C1353.05,2709.66 1355.6,2728.3 1360.51,2748.48C1385.88,2686.97 1387.16,2584.76 1379.81,2516.71Z" style="fill:rgb(254,222,23);"/>
    <path d="M1384.35,2606.81C1376.5,2645.03 1364.05,2675.86 1343.11,2706.08L1351.98,2725.06C1355.83,2735.2 1357.61,2742.24 1358.23,2747.55C1358.28,2748.14 1358.69,2748.64 1359.27,2748.81C1359.84,2748.97 1360.45,2748.77 1360.81,2748.29C1376.81,2725.56 1384.12,2684.17 1385.21,2637.31C1385.44,2627.39 1386.02,2616.88 1384.35,2606.81Z" style="fill:rgb(247,55,24);"/>
    <path d="M1336.25,2708.31C1310.95,2756.5 1278.62,2805.57 1235.92,2848.65C1234.52,2850.07 1232.87,2851.23 1231.06,2852.09C1220.59,2856.93 1215.14,2873.57 1213.93,2887.89C1241.24,2867.49 1272.41,2847.65 1295.05,2824.55C1309.4,2809.91 1319.41,2793.46 1325.66,2775.46C1333.68,2755.04 1339.23,2731.11 1336.25,2708.31Z" style="fill:rgb(247,55,24);"/>
    <path d="M1383.68,2585.23C1366.88,2627.24 1348.5,2665.66 1325.04,2703.49C1311.93,2724.62 1288.01,2743.65 1274.28,2764.64C1255.08,2793.99 1233.62,2823.89 1223.71,2858.15C1225.34,2856.58 1227.16,2854.75 1228.97,2853.53C1230.62,2852.43 1232.5,2852.4 1234,2851.01C1245.2,2840.53 1254.77,2829.13 1265.78,2816.58C1289.93,2789.09 1313.85,2751.52 1336.16,2708.72C1337.04,2704.99 1336.49,2701.91 1335.78,2698.03C1335.75,2697.84 1335.84,2697.64 1336.01,2697.53C1336.19,2697.43 1336.41,2697.45 1336.56,2697.57C1339.71,2701.21 1340.44,2701.24 1343.19,2706.24C1367.38,2673.59 1382.75,2643.41 1384.38,2606.02C1384.66,2599.45 1385.06,2591.37 1383.68,2585.23Z" style="fill:rgb(255,119,0);"/>
    <path d="M1464.96,2365.51C1432.5,2323.96 1372.36,2250.02 1329.1,2214.98C1328.91,2214.82 1328.64,2214.79 1328.41,2214.89C1328.18,2214.99 1328.03,2215.2 1328.01,2215.45C1330.89,2223.91 1352.48,2257.52 1354.64,2260.38C1396.4,2315.55 1438.48,2370.41 1459.45,2427.16C1460.61,2430.36 1462.98,2432.97 1466.05,2434.42C1483.71,2443.02 1500.29,2459.3 1514.49,2473.25C1514.76,2473.51 1515.16,2473.58 1515.49,2473.41C1515.82,2473.24 1516.01,2472.88 1515.95,2472.51C1511.13,2440.53 1493.24,2401.97 1464.96,2365.51Z" style="fill:rgb(247,55,24);"/>
    <path d="M1505.5,2433.01C1486.54,2391.11 1462.12,2351.63 1425.12,2318.99C1456.12,2361.01 1477.44,2406.73 1491.38,2451.66C1500.74,2460.3 1523.71,2497.46 1533.22,2510.18C1533.58,2510.55 1534.13,2510.63 1534.59,2510.39C1535.04,2510.15 1535.27,2509.64 1535.17,2509.14C1530.04,2491.01 1512.12,2445.9 1505.5,2433.01Z" style="fill:rgb(254,222,23);"/>
    <path d="M1542.71,2366.76C1515.33,2334.86 1482.4,2307.02 1444.04,2283.17C1443.76,2283 1443.39,2283.05 1443.17,2283.28C1442.94,2283.52 1442.91,2283.88 1443.1,2284.15C1452.18,2297.39 1492.37,2355.99 1513.9,2387.39C1536.59,2420.46 1553.73,2457.01 1564.64,2495.6C1564.64,2495.61 1564.64,2495.61 1564.65,2495.62C1574.58,2530.75 1577.71,2565.66 1580.59,2598.72C1596.16,2542.01 1594.94,2473.99 1575.93,2408.64C1566.88,2394.07 1555.99,2380.06 1542.71,2366.76Z" style="fill:rgb(247,55,24);"/>
    <path d="M1563.54,2343.56C1561.92,2341.6 1560.34,2339.61 1558.79,2337.6C1528.84,2299.11 1445.49,2227.26 1412.06,2213.52C1411.8,2213.43 1411.52,2213.51 1411.36,2213.74C1411.21,2213.96 1411.23,2214.26 1411.4,2214.46C1439.24,2246.38 1522.59,2324.58 1536.15,2359.73C1546.97,2382.72 1567.68,2404.6 1587.67,2426.03C1597.02,2436.05 1600.54,2449.39 1606.76,2460.66C1606.92,2460.92 1607.23,2461.05 1607.52,2460.96C1607.82,2460.88 1608.01,2460.6 1607.99,2460.29C1605.73,2423.87 1595.11,2382.14 1563.54,2343.56Z" style="fill:rgb(255,119,0);"/>
    <path d="M1736.51,2085.85C1710.09,2062.83 1677.54,2051.66 1638.23,2058.85C1604.16,2065.08 1565.14,2085.72 1519.11,2116.74C1512.23,2121.38 1505.1,2125.79 1497.59,2130.25C1486.58,2136.8 1475.62,2143.45 1464.73,2150.22C1441.95,2164.41 1410.93,2169.73 1376.08,2168.83C1375.58,2168.81 1375.14,2169.13 1374.99,2169.6C1374.84,2170.07 1375.03,2170.58 1375.44,2170.85C1401.14,2187.31 1434.22,2188.7 1467.77,2179.03C1470.83,2178.15 1473.89,2177.31 1476.97,2176.5C1496.27,2171.48 1512.11,2160.78 1526.29,2147.36C1516.55,2157.04 1508.37,2167.26 1507.12,2179.95C1527.29,2170.15 1540.95,2155.17 1556.29,2139.23C1584.86,2109.56 1620.65,2087.31 1657.74,2082.68C1681.37,2079.73 1703.07,2084.59 1730.57,2088.43C1732.4,2088.69 1736.08,2088.19 1736.51,2085.85Z" style="fill:rgb(254,222,23);"/>
    <path d="M1736.08,2086.86C1702.93,2067.17 1668.91,2068.3 1634.67,2076.33C1622.46,2079.19 1610.62,2083.48 1599.41,2089.11C1558.53,2109.62 1518.48,2137.57 1502.79,2186C1502.7,2186.28 1502.8,2186.58 1503.05,2186.74C1503.29,2186.91 1503.61,2186.89 1503.83,2186.7C1512.85,2179.26 1522.79,2171.97 1532.31,2164.2C1546.6,2152.53 1559.66,2138.92 1574.76,2127.73C1588.49,2117.56 1598.53,2110.93 1612.62,2102.79C1614.39,2101.77 1616.14,2100.72 1617.87,2099.63C1642.51,2084.1 1679.67,2078.05 1728.97,2089.21C1731.06,2089.69 1734.16,2089.02 1736.08,2086.86Z" style="fill:rgb(247,55,24);"/>
    <path d="M1464.54,2038.94C1464.74,2038.63 1464.69,2038.23 1464.43,2037.98C1464.16,2037.73 1463.76,2037.71 1463.47,2037.93C1443.52,2052.76 1420.98,2066.79 1395,2068.2C1392.71,2068.31 1390.91,2070.18 1390.9,2072.47C1390.92,2077.34 1391.73,2082.05 1393.69,2086.54C1394.23,2087.75 1394.71,2088.98 1395.14,2090.23C1396.37,2093.74 1398.2,2096.99 1400.54,2100.03C1402.17,2102.13 1405.14,2102.62 1407.36,2101.15C1432.41,2084.37 1450.37,2060.57 1464.54,2038.94Z" style="fill:rgb(247,55,24);"/>
    <path d="M750.999,853.271C651.434,988.604 605.767,1131.43 625.485,1275C634.403,1329.98 651.372,1381.9 676.47,1430.71C676.741,1431.24 676.585,1431.87 676.107,1432.21C675.628,1432.55 674.973,1432.48 674.574,1432.05C647.483,1402.72 624.991,1370.43 605.571,1336.16C598.492,1323.68 587.877,1313.56 575.063,1307.09C512.178,1275.46 465.542,1229.93 427.67,1176.53C422.933,1169.86 417.836,1165.54 413.373,1158.55C407.541,1176.65 408.317,1192.25 408.463,1212.4C409.33,1332.2 452.034,1440.42 541.089,1527.78C576.733,1562.74 619.802,1594.36 670.585,1622.05C642.525,1617.26 622.858,1611.8 604.487,1602.72C593.226,1597.22 580.882,1594.28 568.347,1594.14C504.005,1593.49 443.932,1566.43 386.312,1528.97C385.571,1528.49 384.6,1528.55 383.922,1529.12C383.243,1529.68 383.017,1530.63 383.365,1531.44C397.114,1563.68 410.593,1594.5 428.346,1619.92C512.032,1739.73 639.322,1785.46 797.385,1743.27C760.349,1728.04 738.186,1706.95 729.513,1680.57C729.254,1679.75 729.438,1678.85 730.001,1678.19C730.564,1677.53 731.426,1677.21 732.282,1677.34C751.058,1680.11 769.613,1681.91 787.607,1681.18C788.929,1681.11 790.053,1680.19 790.38,1678.91C790.706,1677.63 790.159,1676.28 789.029,1675.59C691.908,1615.79 658.151,1536.69 649.789,1454.65C649.674,1453.48 650.337,1452.38 651.419,1451.93C652.5,1451.49 653.746,1451.81 654.485,1452.71C696.951,1504.76 745.578,1534.88 795.372,1541.18C796.725,1541.34 798.043,1540.68 798.722,1539.5C799.402,1538.32 799.312,1536.85 798.494,1535.76C714.874,1423.44 692.95,1272.41 725.819,1093.84C725.939,1093.2 726.509,1092.74 727.162,1092.76C727.815,1092.78 728.355,1093.28 728.435,1093.92C731.282,1115.32 739.805,1134.24 752.431,1151.34C753.184,1152.34 754.523,1152.7 755.675,1152.21C756.828,1151.72 757.496,1150.5 757.293,1149.27C742.109,1054.86 739.557,956.583 750.999,853.271Z" style="fill:rgb(247,55,24);"/>
    <path d="M749.539,869.397C722.378,914.031 695.827,960.045 673.051,1018.38C647.631,1108.87 639.079,1184.19 638.081,1246.3C635.756,1391.03 682.862,1468.49 745.387,1497.55C746.411,1498.01 747.616,1497.76 748.372,1496.93C749.128,1496.1 749.264,1494.87 748.71,1493.9C670.033,1354.58 655.537,1203.49 690.246,1050.42C690.409,1049.72 691.063,1049.25 691.779,1049.31C692.495,1049.38 693.053,1049.96 693.088,1050.68C693.676,1064.91 698.33,1076.48 704.372,1086.9C704.848,1087.71 705.794,1088.1 706.701,1087.88C707.608,1087.65 708.26,1086.86 708.306,1085.93C712.071,1012.17 725.373,940.027 749.539,869.397Z" style="fill:rgb(255,119,0);"/>
    <path d="M751.109,852.974C680.449,947.024 643.99,1037.33 627.905,1125.41C615.689,1188.81 618.103,1250.38 632.082,1310.5C636.332,1336.39 652.587,1384.02 664.102,1407.67C656.784,1372.74 642.958,1301.51 642.022,1268.45C641.26,1241.54 641.967,1215.31 643.457,1189.62C647.492,1120.07 658.765,1068.56 678.835,1008.4C689.159,977.456 704.601,949.389 720.197,921.643C729.965,904.266 738.843,886.152 749.544,869.468L751.109,852.974Z" style="fill:rgb(254,222,23);"/>
    <path d="M612.592,1449.64C613.376,1449.88 614.218,1449.54 614.622,1448.83C615.026,1448.12 614.886,1447.22 614.284,1446.67C538.404,1376.55 474.944,1291.03 424.489,1189.38C427.282,1260.63 441.84,1331.22 475.331,1400.77C496.43,1433.88 515.256,1466.23 537.645,1494.49C585.919,1555.41 640.488,1601.93 697.818,1628.72C637.159,1585.89 593.351,1523.68 559.543,1452.99C553.37,1440.09 548.133,1426.74 543.434,1413.1C543.059,1412.01 543.461,1410.8 544.417,1410.15C545.372,1409.5 546.645,1409.56 547.526,1410.31C568.068,1427.75 589.38,1442.29 612.592,1449.64Z" style="fill:rgb(255,119,0);"/>
    <path d="M424.746,1172.55C421.619,1166.99 417.701,1162.02 413.288,1157.41C413.064,1157.18 412.729,1157.1 412.42,1157.19C412.112,1157.28 411.882,1157.54 411.825,1157.86C394.738,1253.72 419.88,1346.29 462.864,1432.78C480.262,1460.08 498.549,1487.64 520.572,1511.89C542.392,1535.91 567.915,1556.67 592.341,1575.73C625.16,1601.34 659.814,1623.29 697.487,1628.5C658.549,1609.12 620.591,1581.17 588.232,1548.94C567.319,1528.11 548.825,1504.68 531.293,1482.69C463.762,1397.99 425.802,1293.45 424.746,1172.55Z" style="fill:rgb(254,222,23);"/>
    <path d="M659.165,1657.97C659.853,1657.72 660.28,1657.04 660.197,1656.31C660.113,1655.58 659.541,1655.01 658.814,1654.92C567.932,1644.15 484.108,1613.34 410.239,1554.25C437.858,1621.85 493.865,1668.44 557.068,1709.7C634.911,1747.28 721.642,1753.87 797.352,1743.11C719.13,1728.11 629.615,1707.25 561.765,1657.6C561.163,1657.15 560.967,1656.33 561.298,1655.66C561.629,1654.99 562.394,1654.64 563.117,1654.85C598.297,1664.65 630.968,1667.51 659.165,1657.97Z" style="fill:rgb(255,119,0);"/>
    <path d="M408.638,1542.79C408.638,1542.79 393.374,1533.09 385.354,1527.99C384.593,1527.51 383.612,1527.55 382.891,1528.09C382.169,1528.63 381.857,1529.56 382.106,1530.42C400.588,1593.11 442.226,1650.33 501.475,1700.22C590.938,1757.75 692.894,1785.21 797.46,1743.24C794.842,1742.26 784.256,1740.99 781.506,1741.23C715.697,1746.89 650.379,1743.65 594.035,1723.43C565.487,1713.19 542.274,1698.42 516.69,1679.57C485.924,1656.89 456.008,1627.68 430.916,1590.33C421.986,1577.03 414.909,1558.97 408.638,1542.79Z" style="fill:rgb(254,222,23);"/>
    <g transform="matrix(-1,0,0,1,2490.12,-9.92653)">
        <path d="M750.999,853.271C651.434,988.604 605.767,1131.43 625.485,1275C634.403,1329.98 651.372,1381.9 676.47,1430.71C676.741,1431.24 676.585,1431.87 676.107,1432.21C675.628,1432.55 674.973,1432.48 674.574,1432.05C647.483,1402.72 624.991,1370.43 605.571,1336.16C598.492,1323.68 587.877,1313.56 575.063,1307.09C512.178,1275.46 465.542,1229.93 427.67,1176.53C422.933,1169.86 417.836,1165.54 413.373,1158.55C407.541,1176.65 408.317,1192.25 408.463,1212.4C409.33,1332.2 452.034,1440.42 541.089,1527.78C576.733,1562.74 619.802,1594.36 670.585,1622.05C642.525,1617.26 622.858,1611.8 604.487,1602.72C593.226,1597.22 580.882,1594.28 568.347,1594.14C504.005,1593.49 443.932,1566.43 386.312,1528.97C385.571,1528.49 384.6,1528.55 383.922,1529.12C383.243,1529.68 383.017,1530.63 383.365,1531.44C397.114,1563.68 410.593,1594.5 428.346,1619.92C512.032,1739.73 639.322,1785.46 797.385,1743.27C760.349,1728.04 738.186,1706.95 729.513,1680.57C729.254,1679.75 729.438,1678.85 730.001,1678.19C730.564,1677.53 731.426,1677.21 732.282,1677.34C751.058,1680.11 769.613,1681.91 787.607,1681.18C788.929,1681.11 790.053,1680.19 790.38,1678.91C790.706,1677.63 790.159,1676.28 789.029,1675.59C691.908,1615.79 658.151,1536.69 649.789,1454.65C649.674,1453.48 650.337,1452.38 651.419,1451.93C652.5,1451.49 653.746,1451.81 654.485,1452.71C696.951,1504.76 745.578,1534.88 795.372,1541.18C796.725,1541.34 798.043,1540.68 798.722,1539.5C799.402,1538.32 799.312,1536.85 798.494,1535.76C714.874,1423.44 692.95,1272.41 725.819,1093.84C725.939,1093.2 726.509,1092.74 727.162,1092.76C727.815,1092.78 728.355,1093.28 728.435,1093.92C731.282,1115.32 739.805,1134.24 752.431,1151.34C753.184,1152.34 754.523,1152.7 755.675,1152.21C756.828,1151.72 757.496,1150.5 757.293,1149.27C742.109,1054.86 739.557,956.583 750.999,853.271Z" style="fill:rgb(247,55,24);"/>
    </g>
    <g transform="matrix(-1,0,0,1,2490.12,-9.92653)">
        <path d="M749.539,869.397C722.378,914.031 695.827,960.045 673.051,1018.38C644.096,1108.46 636.483,1184.24 637.705,1246.8C640.555,1392.59 682.374,1468.97 745.458,1497.65C746.482,1498.1 747.68,1497.84 748.431,1497.01C749.181,1496.18 749.315,1494.96 748.762,1493.99C670.039,1354.65 655.529,1203.52 690.246,1050.42C690.409,1049.72 691.063,1049.25 691.779,1049.31C692.495,1049.38 693.053,1049.96 693.088,1050.68C693.676,1064.91 698.33,1076.48 704.372,1086.9C704.848,1087.71 705.794,1088.1 706.701,1087.88C707.608,1087.65 708.26,1086.86 708.306,1085.93C712.071,1012.17 725.373,940.027 749.539,869.397Z" style="fill:rgb(255,119,0);"/>
    </g>
    <g transform="matrix(-1,0,0,1,2490.12,-9.92653)">
        <path d="M751.109,852.974C680.449,947.024 643.99,1037.33 627.905,1125.41C615.689,1188.81 618.103,1250.38 632.082,1310.5C636.332,1336.39 653.603,1383.47 665.119,1407.12C657.8,1372.18 641.215,1308.86 640.279,1275.81C639.517,1248.9 640.224,1222.66 641.714,1196.98C645.749,1127.43 658.765,1068.56 678.835,1008.4C689.159,977.456 704.601,949.389 720.197,921.643C729.965,904.266 738.843,886.152 749.544,869.468L751.109,852.974Z" style="fill:rgb(254,222,23);"/>
    </g>
    <g transform="matrix(-1,0,0,1,2490.12,-9.92653)">
        <path d="M612.592,1449.64C613.376,1449.88 614.218,1449.54 614.622,1448.83C615.026,1448.12 614.886,1447.22 614.284,1446.67C538.404,1376.55 474.944,1291.03 424.489,1189.38C427.282,1260.63 441.84,1331.22 475.331,1400.77C496.43,1433.88 515.256,1466.23 537.645,1494.49C585.919,1555.41 640.488,1601.93 697.818,1628.72C637.159,1585.89 593.351,1523.68 559.543,1452.99C553.37,1440.09 548.133,1426.74 543.434,1413.1C543.059,1412.01 543.461,1410.8 544.417,1410.15C545.372,1409.5 546.645,1409.56 547.526,1410.31C568.068,1427.75 589.38,1442.29 612.592,1449.64Z" style="fill:rgb(255,119,0);"/>
    </g>
    <g transform="matrix(-1,0,0,1,2490.12,-9.92653)">
        <path d="M424.746,1172.55C421.619,1166.99 417.701,1162.02 413.288,1157.41C413.064,1157.18 412.729,1157.1 412.42,1157.19C412.112,1157.28 411.882,1157.54 411.825,1157.86C394.738,1253.72 419.88,1346.29 462.864,1432.78C480.262,1460.08 498.549,1487.64 520.572,1511.89C542.392,1535.91 567.915,1556.67 592.341,1575.73C625.16,1601.34 659.814,1623.29 697.487,1628.5C658.549,1609.12 620.591,1581.17 588.232,1548.94C567.319,1528.11 548.825,1504.68 531.293,1482.69C463.762,1397.99 425.802,1293.45 424.746,1172.55Z" style="fill:rgb(254,222,23);"/>
    </g>
    <g transform="matrix(-1,0,0,1,2490.12,-9.92653)">
        <path d="M659.165,1657.97C659.853,1657.72 660.28,1657.04 660.197,1656.31C660.113,1655.58 659.541,1655.01 658.814,1654.92C567.932,1644.15 484.108,1613.34 410.239,1554.25C437.858,1621.85 493.865,1668.44 557.068,1709.7C634.911,1747.28 721.642,1753.87 797.352,1743.11C719.13,1728.11 629.615,1707.25 561.765,1657.6C561.163,1657.15 560.967,1656.33 561.298,1655.66C561.629,1654.99 562.394,1654.64 563.117,1654.85C598.297,1664.65 630.968,1667.51 659.165,1657.97Z" style="fill:rgb(255,119,0);"/>
    </g>
    <g transform="matrix(-1,0,0,1,2490.12,-9.92653)">
        <path d="M408.638,1542.79C408.638,1542.79 393.374,1533.09 385.354,1527.99C384.593,1527.51 383.612,1527.55 382.891,1528.09C382.169,1528.63 381.857,1529.56 382.106,1530.42C400.588,1593.11 442.226,1650.33 501.475,1700.22C590.938,1757.75 692.894,1785.21 797.46,1743.24C794.842,1742.26 784.256,1740.99 781.506,1741.23C715.697,1746.89 650.379,1743.65 594.035,1723.43C565.487,1713.19 542.274,1698.42 516.69,1679.57C485.924,1656.89 456.008,1627.68 430.916,1590.33C421.986,1577.03 414.909,1558.97 408.638,1542.79Z" style="fill:rgb(254,222,23);"/>
    </g>
    <path d="M780.897,1228.84C763.213,1210.67 750.411,1187.62 739.114,1163.07C727.781,1360.11 774.816,1522.9 913.048,1632.2C891.679,1627.86 872.111,1617.13 854.422,1599.74C798.218,1591.57 741.278,1559.19 687.688,1515.08C734.485,1629.85 824.064,1693.74 948.458,1674.77C934.494,1683.98 910.268,1690.95 888.51,1693.12C874.539,1694.51 864.61,1691.62 849.076,1693.68C832.924,1695.82 815.464,1699.3 801.127,1708.93C864.413,1760.75 928.288,1764.56 992.62,1731.17C988.903,1704.49 990.54,1677.27 994.992,1649.77C971.201,1643.04 950.272,1630.6 930.664,1615.51C957.016,1622.55 991.762,1624.82 1014.35,1615.97C960.078,1590.18 910.665,1552.44 874.363,1501.34C900.468,1518.83 932.399,1529.83 960.954,1536.71C929.522,1508.91 901.688,1480.78 877.745,1447.48C832.33,1384.3 800.403,1309.14 780.897,1228.84Z" style="fill-opacity:0.48;"/>
    <path d="M781.882,1236.85C780.422,1231.86 778.172,1227.13 775.217,1222.85C765.961,1209.48 756.67,1196.23 748.574,1182.43C751.242,1212.01 752.235,1241.43 758.782,1269.47C774.696,1337.63 803.418,1400.23 842.074,1458.57C848.73,1468.61 854.889,1478.02 862.233,1487.48C865.802,1492.07 870.417,1499.97 874.034,1504.76C900.939,1521.82 928,1532.27 954.435,1535.25C955.462,1535.35 956.434,1534.77 956.832,1533.81C957.231,1532.86 956.961,1531.76 956.169,1531.1C886.468,1472.4 825.27,1384.84 781.882,1236.85Z" style="fill:rgb(247,55,24);"/>
    <path d="M1007.38,1616.39C1007.75,1616.39 1008.07,1616.15 1008.17,1615.8C1008.26,1615.45 1008.12,1615.07 1007.8,1614.89C986.441,1602.18 968.8,1594.13 949.213,1579.96C874.553,1525.96 802.524,1406.44 765.549,1295.05C773.252,1345.57 784.237,1397.71 802.409,1449.51C810.519,1472.62 820.945,1495.59 831.629,1518.45C845.076,1551.88 866.265,1581.44 887.942,1610.76C905.982,1618.34 927.263,1623.64 944.885,1625.77C941.368,1623.57 937.907,1621.14 934.486,1618.55C933.917,1618.12 933.689,1617.37 933.92,1616.69C934.152,1616.02 934.79,1615.57 935.504,1615.58C950.501,1615.74 995.376,1616.25 1007.38,1616.39Z" style="fill:rgb(255,119,0);"/>
    <path d="M783.509,1382.31C776.173,1354.88 772.428,1326.43 766.838,1296.68C763.712,1280.04 759.038,1263.3 755.914,1245.8C752.26,1225.33 751.47,1203.84 748.364,1182.12C748.364,1182.12 742.266,1170.42 740.086,1166.24C739.989,1166.05 739.778,1165.95 739.57,1166C739.363,1166.04 739.208,1166.21 739.191,1166.42C734.183,1230.4 738.066,1296.07 749.912,1363.26C773.336,1466.23 819.485,1548.55 887.833,1610.69C887.232,1609.21 886.035,1607.78 884.979,1606.34C836.021,1539.7 806.172,1462.84 783.509,1382.31Z" style="fill:rgb(254,222,23);"/>
    <path d="M945.019,1625.59C926.225,1622.54 907.083,1617.22 887.731,1610.55C887.731,1610.55 901.113,1622.14 908.598,1628.62C909.237,1629.17 909.421,1630.09 909.047,1630.84C908.672,1631.6 907.833,1632.01 907.006,1631.84C894.099,1628.86 883.472,1621.38 872.171,1613.41C866.296,1609.26 860.454,1601.71 853.208,1601.05C839.292,1599.78 821.362,1594.99 805.706,1589.34C773.429,1577.67 742.452,1559.14 713.575,1539.84C750.784,1602.45 816.632,1642.04 916.463,1654.28C929.475,1655.88 943.008,1657.66 956.975,1657.71C957.441,1657.7 957.841,1658.04 957.927,1658.49C958.014,1658.95 957.762,1659.4 957.328,1659.57C947.856,1663.24 938.715,1668.57 934.991,1676.43C937.502,1676.62 939.78,1676.57 941.909,1676.31C942.298,1676.25 942.67,1676.49 942.791,1676.86C942.911,1677.24 942.745,1677.64 942.397,1677.83C921.24,1687.73 881.909,1697.07 851.208,1696.35C847.314,1696.22 843.433,1696.85 839.782,1698.2C832.179,1700.98 821.488,1703.18 810.333,1705.39C848.452,1729.47 930.202,1720.62 990.626,1673.88C992.031,1666.11 994.489,1658.8 998.176,1652.03C998.631,1651.21 998.698,1650.23 998.359,1649.36C998.019,1648.49 997.308,1647.81 996.419,1647.52C980.817,1642.35 962.412,1636.08 945.019,1625.59Z" style="fill:rgb(247,55,24);"/>
    <path d="M891.049,1650.16C838.896,1641.44 789.642,1619.64 749.422,1583.27C735.83,1570.97 725.677,1554.98 713.555,1540C728.75,1574.68 752.509,1610.56 791.197,1636.31C837.128,1655.29 884.705,1669.65 934.993,1676.43C940.581,1668.49 949.176,1663.01 959.871,1659.03C960.275,1658.88 960.517,1658.46 960.451,1658.04C960.385,1657.61 960.029,1657.29 959.6,1657.27C937.261,1656.18 914.296,1653.52 891.049,1650.16Z" style="fill:rgb(255,119,0);"/>
    <path d="M713.882,1539.54C713.882,1539.54 699.674,1526.39 692.59,1519.83C692.153,1519.42 691.493,1519.37 690.996,1519.7C690.499,1520.03 690.295,1520.66 690.504,1521.22C703.158,1554.81 721.96,1583.96 745.555,1609.64C770.134,1636.47 801.136,1656.6 835.643,1668.14C868.601,1679.1 901.763,1682.26 935.005,1676.43C913.057,1671.38 895.082,1668.23 873.746,1663C842.655,1655.37 810.563,1647.5 784.713,1629.84C764.191,1615.81 746.366,1596.68 731.943,1573.48C724.811,1562.01 719.803,1552.64 713.882,1539.54Z" style="fill:rgb(254,222,23);"/>
    <path d="M990.831,1673.17C960.846,1694.13 929.669,1709.38 894.877,1715.22C884.751,1716.91 864.927,1719.43 847.42,1716.55C832.287,1714.06 818.104,1708.96 810.055,1705.52C832.146,1718.43 887.818,1738.1 923.413,1735.33C946.889,1733.33 969.258,1726.02 990.556,1713.57C989.019,1700.35 987.576,1687.26 990.831,1673.17Z" style="fill:rgb(255,119,0);"/>
    <path d="M990.529,1713.09C966.817,1725.33 943.793,1733.71 919.759,1734.28C885.343,1735.09 849.831,1724.22 810.38,1705.41C808.286,1705.89 805.438,1706.27 803.28,1707.44C802.817,1707.75 802.522,1708.26 802.48,1708.81C802.437,1709.37 802.651,1709.92 803.061,1710.3C824.094,1729.7 850.324,1741.59 879.02,1749.91C921.425,1758.15 958.539,1751.4 991.18,1731.98C992.041,1731.47 992.521,1730.49 992.407,1729.5C991.9,1725.06 990.529,1713.09 990.529,1713.09Z" style="fill:rgb(254,222,23);"/>
    <g transform="matrix(-0.999723,0.0235321,0.0235321,0.999723,2455.17,-25.6663)">
        <path d="M780.897,1228.84C763.213,1210.67 750.411,1187.62 739.114,1163.07C727.781,1360.11 774.816,1522.9 913.048,1632.2C891.679,1627.86 872.111,1617.13 854.422,1599.74C798.218,1591.57 741.278,1559.19 687.688,1515.08C734.485,1629.85 824.064,1693.74 948.458,1674.77C934.494,1683.98 910.268,1690.95 888.51,1693.12C874.539,1694.51 864.61,1691.62 849.076,1693.68C832.924,1695.82 815.464,1699.3 801.127,1708.93C864.413,1760.75 928.288,1764.56 992.62,1731.17C988.903,1704.49 990.54,1677.27 994.992,1649.77C971.201,1643.04 950.272,1630.6 930.664,1615.51C957.016,1622.55 991.762,1624.82 1014.35,1615.97C960.078,1590.18 910.665,1552.44 874.363,1501.34C900.468,1518.83 932.399,1529.83 960.954,1536.71C929.522,1508.91 901.688,1480.78 877.745,1447.48C832.33,1384.3 800.403,1309.14 780.897,1228.84Z" style="fill-opacity:0.48;"/>
    </g>
    <g transform="matrix(-0.999723,0.0235321,0.0235321,0.999723,2455.17,-25.6663)">
        <path d="M781.882,1236.85C780.422,1231.86 778.172,1227.13 775.217,1222.85C765.961,1209.48 756.67,1196.23 748.574,1182.43C751.242,1212.01 752.235,1241.43 758.782,1269.47C774.696,1337.63 803.418,1400.23 842.074,1458.57C848.73,1468.61 854.889,1478.02 862.233,1487.48C865.802,1492.07 870.417,1499.97 874.034,1504.76C900.939,1521.82 928,1532.27 954.435,1535.25C955.462,1535.35 956.434,1534.77 956.832,1533.81C957.231,1532.86 956.961,1531.76 956.169,1531.1C886.468,1472.4 825.27,1384.84 781.882,1236.85Z" style="fill:rgb(247,55,24);"/>
    </g>
    <g transform="matrix(-0.999723,0.0235321,0.0235321,0.999723,2455.17,-25.6663)">
        <path d="M1007.38,1616.39C1007.75,1616.39 1008.07,1616.15 1008.17,1615.8C1008.26,1615.45 1008.12,1615.07 1007.8,1614.89C986.441,1602.18 968.8,1594.13 949.213,1579.96C874.553,1525.96 802.524,1406.44 765.549,1295.05C773.252,1345.57 784.237,1397.71 802.409,1449.51C810.519,1472.62 820.945,1495.59 831.629,1518.45C845.076,1551.88 866.265,1581.44 887.942,1610.76C905.982,1618.34 927.263,1623.64 944.885,1625.77C941.368,1623.57 937.907,1621.14 934.486,1618.55C933.917,1618.12 933.689,1617.37 933.92,1616.69C934.152,1616.02 934.79,1615.57 935.504,1615.58C950.501,1615.74 995.376,1616.25 1007.38,1616.39Z" style="fill:rgb(255,119,0);"/>
    </g>
    <g transform="matrix(-0.999723,0.0235321,0.0235321,0.999723,2455.17,-25.6663)">
        <path d="M783.509,1382.31C776.173,1354.88 772.428,1326.43 766.838,1296.68C763.712,1280.04 759.038,1263.3 755.914,1245.8C752.26,1225.33 751.47,1203.84 748.364,1182.12C748.364,1182.12 742.266,1170.42 740.086,1166.24C739.989,1166.05 739.778,1165.95 739.57,1166C739.363,1166.04 739.208,1166.21 739.191,1166.42C734.183,1230.4 738.066,1296.07 749.912,1363.26C773.336,1466.23 819.485,1548.55 887.833,1610.69C887.232,1609.21 886.035,1607.78 884.979,1606.34C836.021,1539.7 806.172,1462.84 783.509,1382.31Z" style="fill:rgb(254,222,23);"/>
    </g>
    <g transform="matrix(-0.999723,0.0235321,0.0235321,0.999723,2455.17,-25.6663)">
        <path d="M945.019,1625.59C926.225,1622.54 907.083,1617.22 887.731,1610.55C887.731,1610.55 901.113,1622.14 908.598,1628.62C909.237,1629.17 909.421,1630.09 909.047,1630.84C908.672,1631.6 907.833,1632.01 907.006,1631.84C894.099,1628.86 883.472,1621.38 872.171,1613.41C866.296,1609.26 860.454,1601.71 853.208,1601.05C839.292,1599.78 821.362,1594.99 805.706,1589.34C773.429,1577.67 742.452,1559.14 713.575,1539.84C750.784,1602.45 816.632,1642.04 916.463,1654.28C929.65,1655.9 943.372,1657.71 957.538,1657.71C957.954,1657.7 958.312,1658 958.388,1658.41C958.465,1658.82 958.237,1659.22 957.849,1659.37C948.193,1663.05 938.783,1668.43 934.991,1676.43C938.24,1676.68 941.101,1676.52 943.751,1676.02C944.008,1675.97 944.266,1676.11 944.356,1676.36C944.447,1676.6 944.342,1676.88 944.111,1677.01C923.422,1687.2 882.758,1697.09 851.208,1696.35C847.314,1696.22 843.433,1696.85 839.782,1698.2C832.179,1700.98 821.488,1703.18 810.333,1705.39C848.452,1729.47 930.202,1720.62 990.626,1673.88C992.031,1666.11 994.489,1658.8 998.176,1652.03C998.631,1651.21 998.698,1650.23 998.359,1649.36C998.019,1648.49 997.308,1647.81 996.419,1647.52C980.817,1642.35 962.412,1636.08 945.019,1625.59Z" style="fill:rgb(247,55,24);"/>
    </g>
    <g transform="matrix(-0.999723,0.0235321,0.0235321,0.999723,2455.17,-25.6663)">
        <path d="M891.049,1650.16C838.896,1641.44 789.642,1619.64 749.422,1583.27C735.83,1570.97 725.677,1554.98 713.555,1540C728.75,1574.68 752.509,1610.56 791.197,1636.31C837.128,1655.29 884.705,1669.65 934.993,1676.43C940.348,1668.82 948.467,1663.47 958.549,1659.53C959.078,1659.32 959.391,1658.78 959.299,1658.21C959.208,1657.65 958.737,1657.23 958.17,1657.2C936.282,1656.07 913.801,1653.45 891.049,1650.16Z" style="fill:rgb(255,119,0);"/>
    </g>
    <g transform="matrix(-0.999723,0.0235321,0.0235321,0.999723,2455.17,-25.6663)">
        <path d="M713.882,1539.54C713.882,1539.54 699.674,1526.39 692.59,1519.83C692.153,1519.42 691.493,1519.37 690.996,1519.7C690.499,1520.03 690.295,1520.66 690.504,1521.22C703.158,1554.81 721.96,1583.96 745.555,1609.64C770.134,1636.47 801.136,1656.6 835.643,1668.14C868.601,1679.1 901.763,1682.26 935.005,1676.43C913.057,1671.38 895.082,1668.23 873.746,1663C842.655,1655.37 810.563,1647.5 784.713,1629.84C764.191,1615.81 746.366,1596.68 731.943,1573.48C724.811,1562.01 719.803,1552.64 713.882,1539.54Z" style="fill:rgb(254,222,23);"/>
    </g>
    <g transform="matrix(-0.999723,0.0235321,0.0235321,0.999723,2455.17,-25.6663)">
        <path d="M990.831,1673.17C960.846,1694.13 929.669,1709.38 894.877,1715.22C884.751,1716.91 864.927,1719.43 847.42,1716.55C832.287,1714.06 818.104,1708.96 810.055,1705.52C832.146,1718.43 887.818,1738.1 923.413,1735.33C946.889,1733.33 969.258,1726.02 990.556,1713.57C989.019,1700.35 987.576,1687.26 990.831,1673.17Z" style="fill:rgb(255,119,0);"/>
    </g>
    <g transform="matrix(-0.999723,0.0235321,0.0235321,0.999723,2455.17,-25.6663)">
        <path d="M990.529,1713.09C966.817,1725.33 943.794,1733.74 919.759,1734.28C884.047,1735.08 848.739,1723.86 810.38,1705.41C808.286,1705.89 805.438,1706.27 803.28,1707.44C802.817,1707.75 802.522,1708.26 802.48,1708.81C802.437,1709.37 802.651,1709.92 803.061,1710.3C824.094,1729.7 850.324,1741.59 879.02,1749.91C921.425,1758.15 958.539,1751.4 991.18,1731.98C992.041,1731.47 992.521,1730.49 992.407,1729.5C991.9,1725.06 990.529,1713.09 990.529,1713.09Z" style="fill:rgb(254,222,23);"/>
    </g>
    <path d="M948.051,1777.84C948.349,1777.61 948.46,1777.21 948.324,1776.85C948.187,1776.5 947.834,1776.28 947.457,1776.31C906.434,1779.56 868.989,1777.48 839.572,1764.82C836.496,1763.47 832.9,1764.2 830.6,1766.65C805.887,1792.6 768.673,1811.41 721.164,1824.34C797.092,1864.24 890.936,1855.43 978.516,1810.12C979.038,1809.85 979.297,1809.24 979.134,1808.68C978.971,1808.11 978.432,1807.74 977.844,1807.78C959.541,1809.07 941.673,1806.73 924.126,1802.96C930.932,1793.21 938.995,1784.94 948.051,1777.84Z" style="fill:rgb(247,55,24);"/>
    <path d="M980.938,1808.82C981.168,1808.67 981.273,1808.39 981.196,1808.13C981.119,1807.86 980.879,1807.68 980.606,1807.68C961.87,1807.69 942.64,1806.55 924.178,1803.12C858.644,1825.16 789.302,1832.04 721.166,1824.34C752.9,1844.36 797.089,1851.28 845.695,1850.5C853.388,1850.39 861.057,1849.6 868.614,1848.16C910.629,1840.08 949.944,1828.43 980.938,1808.82Z" style="fill:rgb(255,119,0);"/>
    <g transform="matrix(-1,0.000549514,0.000549514,1,2493.74,-1.79688)">
        <path d="M948.051,1777.84C948.349,1777.61 948.46,1777.21 948.324,1776.85C948.187,1776.5 947.834,1776.28 947.457,1776.31C906.434,1779.56 868.989,1777.48 839.572,1764.82C836.496,1763.47 832.9,1764.2 830.6,1766.65C805.887,1792.6 768.673,1811.41 721.164,1824.34C797.092,1864.24 890.936,1855.43 978.516,1810.12C979.038,1809.85 979.297,1809.24 979.134,1808.68C978.971,1808.11 978.432,1807.74 977.844,1807.78C959.541,1809.07 941.673,1806.73 924.126,1802.96C930.932,1793.21 938.995,1784.94 948.051,1777.84Z" style="fill:rgb(247,55,24);"/>
    </g>
    <g transform="matrix(-1,0.000549514,0.000549514,1,2493.74,-1.79688)">
        <path d="M980.938,1808.82C981.168,1808.67 981.273,1808.39 981.196,1808.13C981.119,1807.86 980.879,1807.68 980.606,1807.68C961.87,1807.69 942.64,1806.55 924.178,1803.12C858.644,1825.16 789.302,1832.04 721.166,1824.34C752.9,1844.36 797.089,1851.28 845.695,1850.5C853.388,1850.39 861.057,1849.6 868.614,1848.16C910.629,1840.08 949.944,1828.43 980.938,1808.82Z" style="fill:rgb(255,119,0);"/>
    </g>
    <path d="M1012.47,1730.56C1012.47,1729.89 1012.09,1729.29 1011.49,1729C1010.89,1728.72 1010.19,1728.79 1009.66,1729.19C1002.64,1735.35 993.694,1747.03 986.291,1758.11C979.557,1768.16 970.742,1776.66 960.442,1783.02C958.987,1783.87 957.626,1785.04 956.274,1786.85C955.657,1787.63 955.454,1788.65 955.728,1789.61C956.003,1790.56 956.722,1791.32 957.658,1791.65C972.407,1796.58 989.874,1796.14 1007.82,1790.67C1011.51,1789.54 1013.98,1786.05 1013.82,1782.19C1013.11,1764.29 1012.68,1747.14 1012.47,1730.56Z" style="fill:rgb(247,55,24);"/>
    <g transform="matrix(-0.999985,0.00556454,0.00556454,0.999985,2482.95,-8.28487)">
        <path d="M1012.47,1730.56C1012.47,1729.89 1012.09,1729.29 1011.49,1729C1010.89,1728.72 1010.19,1728.79 1009.66,1729.19C1002.64,1735.35 993.694,1747.03 986.291,1758.11C979.557,1768.16 970.742,1776.66 960.442,1783.02C958.987,1783.87 957.626,1785.04 956.274,1786.85C955.657,1787.63 955.454,1788.65 955.728,1789.61C956.003,1790.56 956.722,1791.32 957.658,1791.65C972.407,1796.58 989.874,1796.14 1007.82,1790.67C1011.51,1789.54 1013.98,1786.05 1013.82,1782.19C1013.11,1764.29 1012.68,1747.14 1012.47,1730.56Z" style="fill:rgb(247,55,24);"/>
    </g>
    <path d="M1013.21,1856.55C1015.72,1854.84 1016.98,1851.8 1016.43,1848.81C1015.01,1841.64 1012.53,1834.68 1008.51,1828.04C1008.05,1827.28 1007.28,1826.76 1006.4,1826.62C1005.53,1826.47 1004.63,1826.71 1003.95,1827.28C995.739,1834.07 988.11,1840.56 978.605,1846.21C966.982,1853.12 954.824,1855.88 943.268,1863.37C932.763,1870.18 926.066,1883.19 916.329,1892.06C906.28,1901.2 894.724,1908.04 884.64,1916.32C884.31,1916.59 884.136,1917.01 884.176,1917.43C884.215,1917.86 884.463,1918.24 884.838,1918.45C909.026,1931.79 936.22,1937.33 968.148,1930.62C971.287,1929.96 973.984,1927.97 975.535,1925.17C977.087,1922.36 977.338,1919.02 976.224,1916.01C969.342,1897.49 982.329,1877.63 1013.21,1856.55Z" style="fill:rgb(247,55,24);"/>
    <path d="M974.356,1905.88C974.356,1905.88 957.134,1909.45 950.449,1910.84C948.685,1911.2 946.908,1911.51 945.121,1911.74C925.837,1914.25 905.535,1916.46 885.189,1916.31C884.756,1916.3 884.363,1916.56 884.192,1916.96C884.022,1917.36 884.108,1917.82 884.41,1918.13C899.496,1930.85 950.124,1942 977.029,1928.75C979.024,1927.69 979.85,1925.26 978.915,1923.2C976.464,1917.66 974.891,1911.9 974.356,1905.88Z" style="fill:rgb(254,222,23);"/>
    <path d="M982.759,1884.04C970.229,1881.07 957.627,1887.11 945.074,1894.67C940.089,1897.63 934.709,1899.88 929.095,1901.35C913.297,1905.48 897.339,1910.48 884.364,1916.62C893.854,1917.09 903.589,1916.48 913.521,1915.81C933.185,1914.47 953.618,1911.43 974.432,1905.88C975.07,1901.92 975.768,1898.18 976.995,1894.82C978.467,1890.8 980.588,1887.29 982.759,1884.04Z" style="fill:rgb(255,119,0);"/>
    <g transform="matrix(-0.99999,0.0045221,0.0045221,0.99999,2485.4,-4.74915)">
        <path d="M1013.21,1856.55C1015.72,1854.84 1016.98,1851.8 1016.43,1848.81C1015.01,1841.64 1012.53,1834.68 1008.51,1828.04C1008.05,1827.28 1007.28,1826.76 1006.4,1826.62C1005.53,1826.47 1004.63,1826.71 1003.95,1827.28C995.739,1834.07 988.11,1840.56 978.605,1846.21C966.982,1853.12 954.824,1855.88 943.268,1863.37C932.763,1870.18 926.066,1883.19 916.329,1892.06C906.28,1901.2 894.724,1908.04 884.64,1916.32C884.31,1916.59 884.136,1917.01 884.176,1917.43C884.215,1917.86 884.463,1918.24 884.838,1918.45C909.026,1931.79 936.22,1937.33 968.148,1930.62C971.287,1929.96 973.984,1927.97 975.535,1925.17C977.087,1922.36 977.338,1919.02 976.224,1916.01C969.342,1897.49 982.329,1877.63 1013.21,1856.55Z" style="fill:rgb(247,55,24);"/>
    </g>
    <g transform="matrix(-0.99999,0.0045221,0.0045221,0.99999,2485.4,-4.74915)">
        <path d="M974.356,1905.88C974.356,1905.88 957.134,1909.45 950.449,1910.84C948.685,1911.2 946.908,1911.51 945.121,1911.74C925.837,1914.25 905.535,1916.46 885.189,1916.31C884.756,1916.3 884.363,1916.56 884.192,1916.96C884.022,1917.36 884.108,1917.82 884.41,1918.13C899.496,1930.85 950.124,1942 977.029,1928.75C979.024,1927.69 979.85,1925.26 978.915,1923.2C976.464,1917.66 974.891,1911.9 974.356,1905.88Z" style="fill:rgb(254,222,23);"/>
    </g>
    <g transform="matrix(-0.99999,0.0045221,0.0045221,0.99999,2485.4,-4.74915)">
        <path d="M982.759,1884.04C970.229,1881.07 957.627,1887.11 945.074,1894.67C940.089,1897.63 934.709,1899.88 929.095,1901.35C913.297,1905.48 897.339,1910.48 884.364,1916.62C893.854,1917.09 903.589,1916.48 913.521,1915.81C933.185,1914.47 953.618,1911.43 974.432,1905.88C975.07,1901.92 975.768,1898.18 976.995,1894.82C978.467,1890.8 980.588,1887.29 982.759,1884.04Z" style="fill:rgb(255,119,0);"/>
    </g>
</svg>
