<?xml version="1.0" standalone="no"?>
<!DOCTYPE svg PUBLIC "-//W3C//DTD SVG 20010904//EN"
 "http://www.w3.org/TR/2001/REC-SVG-20010904/DTD/svg10.dtd">
<svg version="1.0" xmlns="http://www.w3.org/2000/svg"
 width="2428.000000pt" height="2428.000000pt" viewBox="0 0 2428.000000 2428.000000"
 preserveAspectRatio="xMidYMid meet">
<metadata>
Created by potrace 1.14, written by Peter Selinger 2001-2017
</metadata>
<g transform="translate(0.000000,2428.000000) scale(0.100000,-0.100000)"
fill="#000000" stroke="none">
<path d="M16072 24184 c3 -16 29 -119 57 -229 95 -366 214 -924 246 -1155 2
-14 9 -56 15 -95 6 -38 13 -88 16 -110 3 -22 9 -65 14 -95 5 -30 12 -84 16
-120 3 -36 8 -73 9 -82 2 -9 7 -48 10 -85 4 -37 8 -79 10 -93 2 -14 7 -65 10
-115 4 -49 8 -106 11 -125 25 -211 25 -983 0 -1235 -2 -16 -6 -68 -10 -115 -4
-47 -9 -96 -11 -110 -2 -14 -7 -50 -10 -80 -3 -30 -8 -66 -10 -80 -2 -14 -7
-45 -10 -70 -10 -79 -15 -115 -20 -140 -3 -14 -14 -77 -26 -140 -11 -63 -22
-117 -24 -120 -2 -3 -6 -21 -9 -40 -31 -196 -175 -687 -281 -955 -141 -360
-291 -664 -480 -975 -151 -251 -166 -268 -179 -216 -3 14 -22 45 -41 70 -19
26 -35 53 -35 62 0 8 11 65 25 127 27 118 65 322 70 372 1 17 7 64 13 105 31
210 37 314 37 605 0 266 -5 372 -26 530 -15 119 -52 324 -63 355 -3 8 -7 27
-10 41 -2 14 -18 76 -35 137 -172 620 -512 1194 -1006 1700 -101 103 -335 320
-362 335 -15 9 -14 -28 2 -163 2 -19 7 -64 10 -100 3 -36 8 -81 10 -100 2 -19
7 -69 10 -110 3 -41 7 -85 9 -96 10 -48 16 -184 9 -184 -5 0 -24 19 -43 42
-77 93 -278 299 -396 408 -395 363 -967 730 -1415 908 -189 76 -267 98 -373
107 -75 7 -81 -1 -52 -68 30 -67 98 -269 120 -352 28 -109 56 -288 62 -390 3
-55 7 -116 8 -134 4 -50 -7 -92 -20 -83 -15 9 -177 258 -279 427 -123 203
-291 542 -352 705 -13 36 -28 74 -33 85 -5 11 -16 44 -25 73 -9 28 -18 52 -20
52 -2 0 -34 -37 -71 -82 -37 -46 -70 -85 -73 -88 -17 -15 -175 -215 -217 -275
-51 -71 -154 -233 -154 -240 0 -2 -23 -43 -51 -92 -68 -116 -196 -380 -252
-518 -88 -216 -183 -508 -222 -685 -20 -89 -56 -271 -66 -332 -6 -43 -15 -78
-20 -78 -11 0 -79 311 -79 365 0 5 -11 -7 -25 -27 -14 -20 -25 -42 -25 -47 0
-6 -4 -11 -10 -11 -5 0 -10 -4 -10 -10 0 -5 -19 -42 -43 -82 -49 -83 -172
-331 -212 -428 -15 -36 -31 -73 -36 -82 -47 -91 -215 -574 -235 -678 -3 -14
-14 -59 -24 -100 -23 -89 -67 -342 -75 -432 -4 -34 -8 -74 -11 -88 -17 -100
-22 -492 -9 -710 13 -219 14 -210 -37 -287 -77 -115 -119 -217 -153 -373 -28
-127 -30 -135 -45 -135 -23 0 -188 250 -293 445 -77 144 -297 615 -297 636 0
2 -9 26 -21 52 -12 26 -24 56 -29 67 -4 11 -17 41 -29 66 -11 25 -21 53 -21
61 0 8 -4 18 -8 23 -5 6 -20 42 -34 80 -15 39 -40 107 -57 153 -84 221 -208
655 -246 857 -25 134 -53 295 -59 345 -34 279 -48 521 -48 810 0 145 9 430 17
525 2 28 7 88 10 135 10 128 13 159 19 209 3 25 8 71 11 101 6 61 14 131 20
170 2 14 6 43 9 65 19 141 44 312 51 335 2 8 7 35 10 60 3 25 10 70 16 100 5
30 16 91 24 135 16 85 16 87 41 208 8 42 18 90 20 105 7 38 70 317 99 437 13
55 26 111 29 125 3 14 10 41 16 60 6 19 13 50 16 69 3 19 10 45 15 58 5 14 9
33 9 43 0 17 -11 13 -87 -27 -49 -25 -101 -53 -118 -61 -93 -47 -365 -245
-461 -337 -6 -5 -42 -37 -80 -70 -160 -140 -431 -407 -579 -570 -44 -48 -84
-93 -90 -99 -5 -6 -35 -40 -65 -76 -30 -36 -59 -70 -65 -76 -20 -22 -87 -104
-136 -166 -27 -35 -69 -88 -93 -118 -106 -134 -247 -338 -411 -595 -157 -245
-373 -681 -500 -1010 -136 -350 -272 -843 -321 -1159 -3 -21 -7 -48 -10 -60
-4 -22 -39 -277 -48 -356 -3 -25 -8 -81 -11 -124 -7 -96 -17 -116 -53 -116
-31 0 -114 72 -308 266 -164 164 -289 320 -459 569 -92 136 -265 413 -265 425
0 5 -4 10 -10 10 -5 0 -10 5 -10 10 0 6 -11 27 -23 48 -13 20 -35 57 -49 82
-31 55 -169 295 -213 370 -139 238 -229 400 -265 476 -24 49 -47 92 -53 96
-37 24 -87 -69 -190 -353 -81 -224 -129 -400 -187 -689 -18 -85 -33 -162 -35
-170 -1 -8 -6 -37 -9 -65 -4 -27 -11 -68 -16 -90 -5 -22 -11 -60 -14 -85 -3
-25 -8 -56 -11 -70 -2 -14 -7 -47 -10 -75 -5 -46 -10 -91 -20 -170 -20 -160
-28 -765 -12 -930 5 -44 10 -102 13 -130 4 -49 10 -105 19 -175 2 -19 7 -60
10 -90 4 -30 8 -62 10 -70 3 -8 7 -33 10 -55 3 -22 17 -98 30 -170 14 -71 27
-148 31 -170 3 -22 8 -43 9 -46 2 -3 11 -39 20 -80 9 -41 18 -82 21 -91 2 -10
6 -26 8 -35 49 -209 171 -598 248 -793 69 -174 189 -453 199 -464 12 -13 11
-63 0 -70 -5 -4 -20 -2 -33 3 -33 14 -212 155 -368 291 -55 48 -169 151 -210
190 -26 25 -78 74 -116 110 -107 102 -129 116 -159 102 -14 -6 -25 -20 -26
-29 -1 -10 -3 -31 -4 -48 -5 -40 -5 -470 -1 -515 2 -19 7 -66 10 -105 8 -93
15 -164 21 -195 3 -14 7 -45 10 -70 7 -55 8 -63 36 -200 37 -184 143 -539 199
-666 12 -27 26 -58 30 -69 65 -156 122 -272 230 -470 58 -105 253 -396 350
-520 52 -66 96 -122 99 -125 3 -3 35 -39 70 -80 36 -41 139 -149 231 -240 171
-170 193 -191 295 -275 33 -28 62 -53 65 -56 18 -23 332 -251 460 -334 255
-167 342 -207 524 -243 49 -10 91 -22 93 -27 1 -6 -15 -23 -37 -39 -22 -17
-40 -33 -40 -37 0 -13 99 -70 257 -149 87 -43 239 -124 338 -180 385 -216 587
-294 870 -335 23 -3 50 -7 61 -9 33 -7 168 -21 274 -30 57 -5 299 -17 382 -20
53 -1 67 -16 16 -16 -51 0 -215 -47 -282 -81 -85 -43 -95 -62 -48 -91 24 -15
81 -54 137 -93 59 -42 309 -198 505 -314 306 -182 624 -322 835 -366 218 -47
405 -49 650 -9 75 12 144 27 184 40 24 8 45 13 47 12 6 -7 -219 -181 -481
-373 -76 -55 -142 -104 -149 -110 -6 -5 -27 -22 -46 -36 -212 -158 -490 -430
-593 -579 -36 -53 -123 -186 -139 -215 -112 -192 -206 -445 -234 -625 -3 -19
-7 -41 -9 -48 -9 -25 -19 -176 -19 -272 0 -151 10 -239 40 -370 9 -36 17 -72
19 -80 11 -51 63 -190 105 -277 76 -160 172 -288 300 -398 62 -53 147 -107
165 -103 13 2 25 36 51 133 41 157 37 143 67 235 29 87 73 206 87 235 5 11 34
73 64 137 30 65 81 162 113 215 32 54 63 108 69 120 7 12 17 28 23 35 6 7 37
50 69 94 127 180 309 384 323 362 4 -7 5 -16 3 -20 -6 -9 -6 -230 0 -268 2
-14 7 -52 12 -85 4 -33 8 -62 9 -65 48 -224 136 -426 279 -645 129 -197 379
-476 601 -670 109 -95 126 -113 157 -166 43 -73 56 -124 56 -215 0 -125 -39
-272 -104 -388 -51 -91 -161 -157 -263 -158 -130 -1 -203 30 -524 222 -473
283 -682 390 -867 441 -25 7 -49 14 -55 15 -290 86 -650 87 -920 4 -180 -56
-395 -158 -395 -188 0 -15 2 -16 220 -87 421 -137 664 -294 797 -515 79 -133
98 -174 163 -355 43 -122 107 -338 125 -425 6 -30 107 -426 115 -455 112 -374
196 -542 370 -737 56 -64 161 -165 192 -186 13 -9 25 -19 28 -22 14 -19 176
-122 256 -163 209 -107 414 -166 709 -204 77 -10 515 -10 623 0 70 6 232 28
320 42 32 5 52 -4 52 -24 0 -9 -22 -50 -49 -91 -143 -221 -317 -546 -412 -767
-101 -237 -196 -535 -229 -723 -20 -118 -20 -111 -35 -255 -7 -57 -7 -348 -1
-376 3 -13 8 -51 11 -84 7 -67 35 -197 63 -295 111 -377 348 -720 717 -1034
90 -77 126 -92 141 -58 4 9 7 20 6 24 -1 4 5 45 14 90 9 46 18 94 21 108 24
134 124 418 185 527 50 90 63 111 91 153 46 67 210 227 309 303 117 90 251
178 523 347 428 266 522 337 755 570 325 325 479 514 665 814 57 93 78 131
162 286 142 264 325 744 404 1055 11 44 23 87 26 95 3 8 7 20 8 26 2 6 17 75
34 155 18 79 34 155 37 168 9 44 19 6 31 -124 10 -104 10 -557 0 -660 -13
-138 -39 -339 -53 -409 -2 -11 -8 -46 -14 -76 -11 -62 -12 -66 -35 -170 -21
-97 -23 -102 -55 -225 -29 -112 -57 -204 -96 -320 -34 -101 -41 -135 -26 -135
13 0 304 229 402 316 115 102 154 137 214 194 589 551 981 1128 1180 1736 53
164 107 403 122 542 3 26 9 81 13 122 11 95 11 480 1 551 -5 30 -11 85 -14
122 -5 57 -20 138 -62 351 -16 84 -112 377 -154 471 -144 327 -249 502 -425
710 -71 84 -103 117 -361 376 -213 213 -265 270 -260 286 3 10 48 54 99 96
108 90 175 152 409 382 253 250 370 344 498 404 178 82 392 67 625 -45 416
-198 627 -521 711 -1084 21 -142 26 -153 49 -109 49 98 117 262 130 319 0 3 9
32 19 64 26 86 56 249 62 339 13 164 5 400 -16 505 -5 26 -11 61 -14 77 -2 17
-9 53 -16 80 -6 28 -13 59 -16 69 -23 114 -107 352 -162 463 -40 80 -125 211
-173 268 -76 90 -272 265 -297 265 -6 0 -12 4 -14 8 -10 26 -259 151 -388 195
-267 90 -584 98 -900 24 -104 -25 -323 -99 -415 -142 -186 -85 -318 -155 -475
-250 -61 -37 -113 -66 -116 -63 -2 3 4 26 15 51 19 45 59 169 67 211 22 113
26 159 26 278 0 134 1 136 22 132 11 -2 44 -8 71 -14 224 -44 480 -46 703 -5
69 12 222 67 311 110 50 25 93 45 95 45 4 0 151 82 191 107 11 7 27 15 35 19
8 4 68 41 133 81 65 40 120 73 122 73 5 0 294 179 345 213 65 44 191 138 220
164 20 19 23 27 14 41 -18 29 -154 92 -251 115 -51 12 -93 24 -93 27 0 3 46 5
103 6 210 1 395 19 622 59 167 29 392 93 585 165 98 36 112 43 285 126 120 57
168 84 385 211 109 64 235 156 235 173 0 8 -18 24 -40 37 -26 15 -35 24 -25
27 8 3 47 14 85 26 39 11 79 24 90 29 11 5 67 28 125 52 353 147 763 439 1115
794 523 528 904 1185 1156 1988 46 150 101 353 113 422 3 17 8 41 11 55 3 14
8 41 11 60 2 19 7 46 9 60 22 123 32 291 29 475 -2 168 -5 219 -20 335 -3 25
-7 53 -8 63 0 10 -8 22 -16 27 -11 7 -47 -24 -155 -133 -195 -198 -322 -313
-544 -495 -168 -138 -259 -204 -266 -192 -3 5 6 32 19 59 14 27 60 130 102
228 263 613 433 1227 509 1828 2 11 6 38 9 60 9 69 22 225 31 380 7 107 7 532
0 620 -13 184 -32 388 -40 435 -3 14 -7 45 -10 70 -14 117 -64 388 -96 515 -5
22 -12 49 -14 60 -22 108 -127 462 -185 626 -69 192 -153 399 -161 399 -5 0
-26 -35 -48 -77 -35 -71 -85 -155 -253 -428 -51 -84 -162 -277 -231 -405 -16
-30 -51 -92 -78 -138 -27 -45 -49 -84 -49 -87 0 -7 -152 -250 -238 -380 -258
-390 -454 -623 -829 -984 -24 -23 -31 -1 -38 109 -8 132 -18 246 -29 330 -2
14 -7 48 -10 76 -4 28 -9 61 -11 74 -2 13 -7 44 -10 69 -5 45 -9 71 -20 121
-10 49 -15 75 -21 110 -18 121 -118 498 -179 680 -26 74 -47 140 -49 145 -2 6
-7 19 -11 30 -4 11 -27 70 -50 130 -73 188 -208 477 -303 648 -18 31 -46 82
-63 113 -41 74 -182 298 -254 404 -65 95 -186 262 -195 270 -3 3 -17 21 -30
40 -13 19 -27 37 -30 40 -3 3 -23 28 -45 55 -21 28 -42 52 -45 55 -3 3 -13 14
-21 26 -8 11 -37 47 -66 80 -28 32 -61 70 -73 84 -102 119 -397 422 -555 570
-105 97 -346 305 -470 404 -60 49 -119 96 -130 105 -11 9 -63 47 -115 86 -52
38 -97 72 -100 75 -10 13 -210 151 -226 157 -14 5 -16 1 -12 -23z"/>
</g>
</svg>
